<svg xmlns="http://www.w3.org/2000/svg" xmlns:xlink="http://www.w3.org/1999/xlink" width="100" height="100" viewBox="0 0 100 100">
  <defs>
    <linearGradient id="linear-gradient" y1="0.5" x2="1" y2="0.5" gradientUnits="objectBoundingBox">
      <stop offset="0" stop-color="#2d8fff"/>
      <stop offset="1" stop-color="#9bcaff"/>
    </linearGradient>
  </defs>
  <g id="Group_35" data-name="Group 35" transform="translate(-94 -63)">
    <g id="Group_33" data-name="Group 33" transform="translate(-17 17)">
      <path id="Path_5" data-name="Path 5" d="M0,0H100V100H0Z" transform="translate(111 46)" fill="none"/>
      <g id="hospital" transform="translate(115 47.487)">
        <g id="Group_36" data-name="Group 36" transform="translate(0.013 0.02)">
          <path id="Fill_1" data-name="Fill 1" d="M11.689,18H6.312a1.835,1.835,0,0,1-1.833-1.833V13.521H1.833A1.835,1.835,0,0,1,0,11.688V6.312A1.835,1.835,0,0,1,1.833,4.479H4.479V1.833A1.835,1.835,0,0,1,6.312,0h5.376a1.835,1.835,0,0,1,1.833,1.833V4.479h2.646A1.835,1.835,0,0,1,18,6.312v5.376a1.835,1.835,0,0,1-1.833,1.833H13.521v2.646A1.831,1.831,0,0,1,11.689,18ZM3.666,8.144V9.856H6.923a1.223,1.223,0,0,1,1.221,1.221v3.256H9.856V11.077a1.223,1.223,0,0,1,1.221-1.221h3.256V8.144H11.077A1.223,1.223,0,0,1,9.856,6.923V3.666H8.144V6.923A1.223,1.223,0,0,1,6.923,8.144Z" transform="translate(53.471 7.166)" fill="url(#linear-gradient)"/>
          <path id="Fill_3" data-name="Fill 3" d="M87.785,91.494h0l-48.511-.023a1.9,1.9,0,0,1-.275.022H3.054A3.058,3.058,0,0,1,0,88.439v-2.6a1.833,1.833,0,0,1,3.666,0v1.984h33.5V40.752H3.666v32.26a1.833,1.833,0,0,1-3.666,0V40.141a3.058,3.058,0,0,1,3.054-3.054H37.187v-19.7a3.058,3.058,0,0,1,3.054-3.055h6.174a16.164,16.164,0,0,1,32.118,0h6.2a3.058,3.058,0,0,1,3.054,3.054V91.493ZM49.808,65.243H75.142A3.058,3.058,0,0,1,78.2,68.3V87.8h5.921V18H78.533a16.162,16.162,0,0,1-32.117,0H40.853V87.8h5.9V68.3A3.059,3.059,0,0,1,49.808,65.243Zm.611,3.666V87.8h24.11v-18.9ZM62.475,3.666a12.5,12.5,0,1,0,12.5,12.5A12.514,12.514,0,0,0,62.475,3.666Z" transform="translate(-0.015 0)" fill="url(#linear-gradient)"/>
        </g>
        <path id="Fill_5" data-name="Fill 5" d="M9.182,12.236H3.054A3.058,3.058,0,0,1,0,9.182V3.054A3.058,3.058,0,0,1,3.054,0H9.182a3.058,3.058,0,0,1,3.054,3.054V9.182A3.058,3.058,0,0,1,9.182,12.236ZM3.666,3.666v4.9h4.9v-4.9Z" transform="translate(48.664 35.109)" fill="url(#linear-gradient)"/>
        <path id="Fill_6" data-name="Fill 6" d="M9.182,12.236H3.054A3.058,3.058,0,0,1,0,9.182V3.054A3.058,3.058,0,0,1,3.054,0H9.182a3.058,3.058,0,0,1,3.054,3.054V9.182A3.058,3.058,0,0,1,9.182,12.236ZM3.666,3.666v4.9h4.9v-4.9Z" transform="translate(64.045 35.109)" fill="url(#linear-gradient)"/>
        <path id="Fill_7" data-name="Fill 7" d="M9.182,12.236H3.054A3.058,3.058,0,0,1,0,9.182V3.054A3.058,3.058,0,0,1,3.054,0H9.182a3.058,3.058,0,0,1,3.054,3.054V9.182A3.058,3.058,0,0,1,9.182,12.236ZM3.666,3.666v4.9h4.9v-4.9Z" transform="translate(48.664 50.069)" fill="url(#linear-gradient)"/>
        <path id="Fill_8" data-name="Fill 8" d="M9.182,12.236H3.054A3.058,3.058,0,0,1,0,9.182V3.054A3.058,3.058,0,0,1,3.054,0H9.182a3.058,3.058,0,0,1,3.054,3.054V9.182A3.058,3.058,0,0,1,9.182,12.236ZM3.666,3.666v4.9h4.9v-4.9Z" transform="translate(64.045 50.069)" fill="url(#linear-gradient)"/>
        <path id="Fill_13" data-name="Fill 13" d="M9.182,12.236H3.054A3.058,3.058,0,0,1,0,9.182V3.054A3.058,3.058,0,0,1,3.054,0H9.182a3.058,3.058,0,0,1,3.054,3.054V9.182A3.058,3.058,0,0,1,9.182,12.236ZM3.666,3.666v4.9h4.9v-4.9Z" transform="translate(6.605 44.919)" fill="url(#linear-gradient)"/>
        <path id="Fill_14" data-name="Fill 14" d="M9.182,12.236H3.054A3.058,3.058,0,0,1,0,9.182V3.054A3.058,3.058,0,0,1,3.054,0H9.182a3.058,3.058,0,0,1,3.054,3.054V9.182A3.058,3.058,0,0,1,9.182,12.236ZM3.666,3.666v4.9h4.9v-4.9Z" transform="translate(21.986 44.919)" fill="url(#linear-gradient)"/>
        <path id="Fill_15" data-name="Fill 15" d="M9.182,12.236H3.054A3.058,3.058,0,0,1,0,9.182V3.054A3.058,3.058,0,0,1,3.054,0H9.182a3.058,3.058,0,0,1,3.054,3.054V9.182A3.058,3.058,0,0,1,9.182,12.236ZM3.666,3.666v4.9h4.9v-4.9Z" transform="translate(6.605 59.88)" fill="url(#linear-gradient)"/>
        <path id="Fill_16" data-name="Fill 16" d="M9.182,12.236H3.054A3.058,3.058,0,0,1,0,9.182V3.054A3.058,3.058,0,0,1,3.054,0H9.182a3.058,3.058,0,0,1,3.054,3.054V9.182A3.058,3.058,0,0,1,9.182,12.236ZM3.666,3.666v4.9h4.9v-4.9Z" transform="translate(21.986 59.88)" fill="url(#linear-gradient)"/>
      </g>
    </g>
  </g>
</svg>
