<svg xmlns="http://www.w3.org/2000/svg" xmlns:xlink="http://www.w3.org/1999/xlink" width="175" height="175" viewBox="0 0 175 175">
  <defs>
    <linearGradient id="linear-gradient" y1="0.5" x2="1" y2="0.5" gradientUnits="objectBoundingBox">
      <stop offset="0" stop-color="#2d8fff"/>
      <stop offset="1" stop-color="#9bcaff"/>
    </linearGradient>
  </defs>
  <g id="Group_21" data-name="Group 21" transform="translate(80 -254)">
    <path id="Path_2" data-name="Path 2" d="M0,0H175V175H0Z" transform="translate(-80 254)" fill="none"/>
    <g id="Schedule" transform="translate(-75.002 255)">
      <path id="Fill_1" data-name="Fill 1" d="M75.838,59.129h-.019l-31.552-.235a10.846,10.846,0,0,1-7.673-3.225A10.735,10.735,0,0,1,33.47,48.4L15.144,30.19A6.223,6.223,0,0,0,10.789,28.4,5.661,5.661,0,0,0,6.974,29.83a5.783,5.783,0,0,0-1.88,4.143,5.681,5.681,0,0,0,1.675,4.208L19.391,50.743a2.537,2.537,0,0,1,0,3.569,2.576,2.576,0,0,1-3.593,0L3.176,41.751A10.774,10.774,0,0,1,8.483,23.572L3.342,18.464A10.832,10.832,0,0,1,1.172,15.4,10.863,10.863,0,0,1,3.343,3.168a10.947,10.947,0,0,1,15.394,0l5.3,5.261A10.908,10.908,0,0,1,42.34,3.168l8.24,8.187A10.919,10.919,0,0,1,68.895,6.1l18.92,18.8a36.221,36.221,0,0,1,37.064-6.106,35.629,35.629,0,0,1,11.876,7.827L163.309,53a2.533,2.533,0,0,1-3.593,3.57L133.162,30.19a31.016,31.016,0,0,0-43.614,0l-11.8,11.726a2.53,2.53,0,0,1-1.795.739,2.572,2.572,0,0,1-.757-.114l-30.8-.231H44.3a5.849,5.849,0,0,0-5.755,5.725,5.7,5.7,0,0,0,1.685,4.075A5.775,5.775,0,0,0,44.3,53.845l31.553.236a2.53,2.53,0,0,1,1.79.752,2.5,2.5,0,0,1,.731,1.79A2.54,2.54,0,0,1,75.838,59.129ZM11.04,5.052a5.78,5.78,0,0,0-4.1,1.686,5.795,5.795,0,0,0,0,8.156L34.908,42.688a10.9,10.9,0,0,1,9.439-5.426h.084l1.446.011L15.144,6.738A5.785,5.785,0,0,0,11.04,5.052Zm23.6.019a5.772,5.772,0,0,0-4.1,1.667,5.745,5.745,0,0,0,0,8.156c.223.222,22.289,22.208,22.4,22.431l16.712.125L38.747,6.738A5.775,5.775,0,0,0,34.644,5.071ZM61.2,7.982a5.785,5.785,0,0,0-4.1,1.687,5.794,5.794,0,0,0,0,8.156L75.948,36.56l8.209-8.155L65.3,9.669A5.781,5.781,0,0,0,61.2,7.982Z" transform="translate(0.002 89.122)" fill="url(#linear-gradient)"/>
      <path id="Fill_3" data-name="Fill 3" d="M98.752,6.6a2.553,2.553,0,0,0-2.295-.69L67.2,11.726h-51.8L4.337.739a2.552,2.552,0,0,0-3.593,0,2.512,2.512,0,0,0,0,3.569l11.8,11.727a2.548,2.548,0,0,0,1.8.739H67.451a2.56,2.56,0,0,0,.5-.049l28.171-5.6,13.791,13.7a2.577,2.577,0,0,0,3.728-.145,2.537,2.537,0,0,0-.135-3.425L98.752,6.6" transform="translate(23.253 147.251)" fill="url(#linear-gradient)"/>
      <path id="Fill_5" data-name="Fill 5" d="M37.726,75.451A37.726,37.726,0,1,1,75.451,37.726,37.768,37.768,0,0,1,37.726,75.451Zm0-70.376a32.651,32.651,0,1,0,32.65,32.651A32.688,32.688,0,0,0,37.726,5.075Z" transform="translate(41.377 0)" fill="url(#linear-gradient)"/>
      <path id="Fill_6" data-name="Fill 6" d="M11.533,17.327a2.653,2.653,0,0,0,3.434.516l8.227-5.312a2.442,2.442,0,0,0,.713-3.453,2.623,2.623,0,0,0-3.565-.691l-6.266,4.046L4.579.935A2.628,2.628,0,0,0,.965.546a2.437,2.437,0,0,0-.4,3.5L11.533,17.327" transform="translate(65.716 21.905)" fill="url(#linear-gradient)"/>
      <path id="Fill_7" data-name="Fill 7" d="M26.773,53.546A26.812,26.812,0,0,1,.28,30.62C.17,29.592,0,27.476,0,26.773a26.773,26.773,0,0,1,53.546,0,24.179,24.179,0,0,1-.281,3.848A26.766,26.766,0,0,1,26.773,53.546Zm0-10.44A2.529,2.529,0,0,1,29.3,45.632v2.71a21.807,21.807,0,0,0,18.557-16.35H45.632a2.526,2.526,0,1,1,0-5.051H48.49c0-.024,0-.048,0-.072s0-.064,0-.1A21.709,21.709,0,0,0,29.3,5.2V7.914a2.526,2.526,0,0,1-5.052,0V5.2a21.711,21.711,0,0,0-19.2,21.57c0,.032,0,.064,0,.1s0,.048,0,.072H7.914a2.526,2.526,0,1,1,0,5.051H5.691a21.805,21.805,0,0,0,18.556,16.35v-2.71A2.528,2.528,0,0,1,26.773,43.107Z" transform="translate(52.329 10.953)" fill="url(#linear-gradient)"/>
    </g>
  </g>
</svg>
