<svg xmlns="http://www.w3.org/2000/svg" xmlns:xlink="http://www.w3.org/1999/xlink" width="175" height="175" viewBox="0 0 175 175">
  <defs>
    <linearGradient id="linear-gradient" y1="0.5" x2="1" y2="0.5" gradientUnits="objectBoundingBox">
      <stop offset="0" stop-color="#2d8fff"/>
      <stop offset="1" stop-color="#9bcaff"/>
    </linearGradient>
  </defs>
  <g id="Group_15" data-name="Group 15" transform="translate(80 -254)">
    <path id="Path_2" data-name="Path 2" d="M0,0H175V175H0Z" transform="translate(-80 254)" fill="none"/>
    <g id="doctor" transform="translate(-76 256)">
      <path id="Fill_1" data-name="Fill 1" d="M163.571,170.615H2.859a2.861,2.861,0,0,1,0-5.722H22.294v-5.861c0-13.424,3.579-23.785,10.637-30.794A30.768,30.768,0,0,1,46.3,120.468a28.766,28.766,0,0,1,7.366-1.184H68v-9.132a39.351,39.351,0,0,1-11.341-7.16,41.806,41.806,0,0,1-7.121-8.423,47.028,47.028,0,0,1-6.793-17.12,2.45,2.45,0,0,1-.03-.411v-.6A10.041,10.041,0,0,1,37.5,73.356C33.457,68.875,33.69,61.8,33.978,58.963A7.413,7.413,0,0,1,36.8,53.729a10.967,10.967,0,0,1,5.867-2.008V35.477a34.511,34.511,0,0,1,2.365-13.264C47.584,15.787,53.361,7.736,66.38,5.872A111.872,111.872,0,0,1,82.6,4.748c2.28,0,4.387.054,6.079.1l.079,0c1.662.042,3.024.07,4.27.07,5.915,0,9.329-.608,12.735-4.065A2.86,2.86,0,0,1,109.353.46a2.873,2.873,0,0,1,1.109,3.44l0,.009a5.84,5.84,0,0,0-.264,2.254,3.14,3.14,0,0,0,2.145,2.719c7.653,3.377,11.373,9.392,11.373,18.39V51.723a10.642,10.642,0,0,1,5.848,2.006,7.413,7.413,0,0,1,2.821,5.234c.29,2.834.526,9.908-3.525,14.393a10.039,10.039,0,0,1-5.145,3.07v.613a2.692,2.692,0,0,1-.029.411,47.019,47.019,0,0,1-6.794,17.12,41.816,41.816,0,0,1-7.12,8.423,39.338,39.338,0,0,1-11.341,7.16v9.132h14.324a28.618,28.618,0,0,1,7.17,1.127,32.34,32.34,0,0,1,6.6,2.659,30.294,30.294,0,0,1,6.972,5.167c7.056,7.011,10.634,17.371,10.634,30.794v5.861h19.436a2.861,2.861,0,0,1,0,5.722Zm-62.9-45.609v39.888h37.74v-5.861c0-11.844-3.01-20.839-8.945-26.735a25.6,25.6,0,0,0-11.493-6.492V136.09a10.6,10.6,0,0,1,5.824,5.465,16.115,16.115,0,0,1,1.53,5,2.777,2.777,0,0,1,.018.318v7.789a2.859,2.859,0,1,1-5.719,0v-7.6c-.136-.894-.993-5.379-4.513-5.811-3.515.431-4.377,4.914-4.514,5.809v7.6a2.859,2.859,0,1,1-5.719,0v-7.789a2.553,2.553,0,0,1,.019-.318,16.163,16.163,0,0,1,1.529-5,10.6,10.6,0,0,1,5.824-5.465V125.006Zm-29.389,6.538v33.35h23.67V131.781a15.183,15.183,0,0,1-23.67-.238Zm-21.559-6.06c-6.528,1.358-21.71,7.344-21.71,33.549v5.861H65.564V125.006H55.444V136.68a10.74,10.74,0,1,1-5.719,0v-11.2Zm2.859,16.529a5.022,5.022,0,1,0,5.019,5.022A5.027,5.027,0,0,0,52.585,142.012Zm21.134-29.963v10.068a9.493,9.493,0,1,0,18.986,0c0-.013,0-.026,0-.039V112.049a49.1,49.1,0,0,1-8.951,1.4c-.052,0-.11.006-.184.006h-.719c-.075,0-.133,0-.184-.006A48.979,48.979,0,0,1,73.719,112.049ZM63.74,32.331h0C59.689,42.364,52.412,45.752,48.435,46.879V76.8a42.5,42.5,0,0,0,6.027,14.844c6.409,9.84,15.993,15.251,28.486,16.084h.532c12.491-.833,22.075-6.244,28.486-16.084A42.6,42.6,0,0,0,117.993,76.8v-27.8c-6.873-.5-12.11-2.88-15.564-7.064a19.585,19.585,0,0,1-4.185-10.129,26.121,26.121,0,0,1-15.925,5.012H82.3a37.043,37.043,0,0,1-6.521-.607A50.207,50.207,0,0,1,63.74,32.331ZM42.716,57.466h0a4.978,4.978,0,0,0-2.406.782,1.683,1.683,0,0,0-.642,1.3c-.338,3.337.031,7.71,2.08,9.977a4.482,4.482,0,0,0,.968.809V57.466Zm81,.007V70.289a4.493,4.493,0,0,0,.9-.768c2.051-2.269,2.419-6.641,2.079-9.977a1.681,1.681,0,0,0-.642-1.3A4.687,4.687,0,0,0,123.715,57.473ZM101.157,22.144a2.864,2.864,0,0,1,2.809,3.4,18.981,18.981,0,0,0-.152,4.5,14.787,14.787,0,0,0,3.051,8.283c2.353,2.831,6.1,4.49,11.131,4.931V27.271c0-6.758-2.381-10.692-7.962-13.155a8.924,8.924,0,0,1-5.153-5.578c-3.5,1.75-7.217,2.109-11.713,2.109-1.4,0-2.884-.037-4.32-.072H88.8l-.056,0-.058,0-.063,0h-.01l-.084,0h-.018c-1.654-.043-3.712-.1-5.871-.1a106.455,106.455,0,0,0-15.446,1.066c-8.277,1.184-13.945,5.487-16.845,12.789A28.423,28.423,0,0,0,48.383,35.25c0,.054.005.108.005.162v5.451c3.66-1.475,8.539-4.994,10.984-13.383a2.862,2.862,0,0,1,2.745-2.06,2.85,2.85,0,0,1,1.463.4,43.71,43.71,0,0,0,13.365,4.79,31.407,31.407,0,0,0,5.393.495A20.155,20.155,0,0,0,98.914,23.23,2.842,2.842,0,0,1,101.157,22.144Z" transform="translate(0 0.079)" fill="url(#linear-gradient)"/>
      <path id="Fill_4" data-name="Fill 4" d="M6.789,3.394A3.394,3.394,0,1,1,3.393,0,3.394,3.394,0,0,1,6.789,3.394Z" transform="translate(59.16 49.464)" fill="url(#linear-gradient)"/>
      <path id="Fill_5" data-name="Fill 5" d="M6.789,3.394A3.394,3.394,0,1,1,3.395,0,3.393,3.393,0,0,1,6.789,3.394Z" transform="translate(99.893 49.464)" fill="url(#linear-gradient)"/>
      <path id="Fill_6" data-name="Fill 6" d="M36.217,4.7A2.894,2.894,0,0,0,35.786.641a2.859,2.859,0,0,0-4.036.434C31.72,1.112,28.271,4.9,19.133,4.9,9.641,4.9,5.014.937,4.787.738A2.858,2.858,0,0,0,.75.941,2.9,2.9,0,0,0,.936,5.017c.251.231,6.3,5.651,18.2,5.651C31.083,10.668,35.728,5.309,36.217,4.7Z" transform="translate(64.979 84.378)" fill="url(#linear-gradient)"/>
      <path id="Fill_7" data-name="Fill 7" d="M7.006,9.7H8.512a6.935,6.935,0,0,0,7.006-6.846,2.92,2.92,0,0,0-5.839,0A1.155,1.155,0,0,1,8.512,3.994H7.006A1.156,1.156,0,0,1,5.839,2.852,2.887,2.887,0,0,0,2.919,0,2.886,2.886,0,0,0,0,2.852,6.935,6.935,0,0,0,7.006,9.7Z" transform="translate(75.647 64.012)" fill="url(#linear-gradient)"/>
      <path id="Fill_8" data-name="Fill 8" d="M3.879,1.939A1.94,1.94,0,1,1,1.941,0,1.939,1.939,0,0,1,3.879,1.939Z" transform="translate(50.431 145.478)" fill="url(#linear-gradient)"/>
    </g>
  </g>
</svg>
