<svg id="drug" xmlns="http://www.w3.org/2000/svg" xmlns:xlink="http://www.w3.org/1999/xlink" width="129" height="197" viewBox="0 0 129 197">
  <defs>
    <linearGradient id="linear-gradient" y1="0.5" x2="1" y2="0.5" gradientUnits="objectBoundingBox">
      <stop offset="0" stop-color="#2d8fff"/>
      <stop offset="1" stop-color="#9bcaff"/>
    </linearGradient>
  </defs>
  <path id="Fill_1" data-name="Fill 1" d="M101.357,9.226H92.143V3.075A3.074,3.074,0,0,0,89.071,0H39.929a3.074,3.074,0,0,0-3.071,3.075V9.226H27.643A27.692,27.692,0,0,0,0,36.906v98.415A27.692,27.692,0,0,0,27.643,163h73.714A27.692,27.692,0,0,0,129,135.321V36.906A27.692,27.692,0,0,0,101.357,9.226" transform="translate(0 34)" fill="#dedddd"/>
  <path id="Fill_2" data-name="Fill 2" d="M110.624,153.774H27.656A18.445,18.445,0,0,1,9.219,135.321V33.83A18.445,18.445,0,0,1,27.656,15.377H43.021A3.074,3.074,0,0,0,46.093,12.3V0H39.948a3.074,3.074,0,0,0-3.073,3.075V9.226H27.656A27.668,27.668,0,0,0,0,36.906v98.415A27.668,27.668,0,0,0,27.656,163h73.749A27.658,27.658,0,0,0,125,149.744a27.509,27.509,0,0,1-14.376,4.03" transform="translate(0 34)" fill="#cecccc"/>
  <path id="Fill_3" data-name="Fill 3" d="M70.769,0H9.231A9.242,9.242,0,0,0,0,9.231V30.769A9.242,9.242,0,0,0,9.231,40H70.769A9.242,9.242,0,0,0,80,30.769V9.231A9.242,9.242,0,0,0,70.769,0" transform="translate(25)" fill="#7f7d87"/>
  <path id="Fill_4" data-name="Fill 4" d="M9,30.769V9.231A9.128,9.128,0,0,1,18,0H9A9.128,9.128,0,0,0,0,9.231V30.769A9.128,9.128,0,0,0,9,40h9a9.128,9.128,0,0,1-9-9.231" transform="translate(25)" fill="#726d79"/>
  <path id="Fill_5" data-name="Fill 5" d="M3,22a3.074,3.074,0,0,1-3-3.143V3.143A3.074,3.074,0,0,1,3,0,3.074,3.074,0,0,1,6,3.143V18.857A3.074,3.074,0,0,1,3,22" transform="translate(61 9)" fill="#645f6c"/>
  <path id="Fill_6" data-name="Fill 6" d="M3,22a3.074,3.074,0,0,1-3-3.143V3.143A3.074,3.074,0,0,1,3,0,3.074,3.074,0,0,1,6,3.143V18.857A3.074,3.074,0,0,1,3,22" transform="translate(74 9)" fill="#645f6c"/>
  <path id="Fill_7" data-name="Fill 7" d="M3,22a3.074,3.074,0,0,1-3-3.143V3.143A3.074,3.074,0,0,1,3,0,3.074,3.074,0,0,1,6,3.143V18.857A3.074,3.074,0,0,1,3,22" transform="translate(86 9)" fill="#645f6c"/>
  <path id="Fill_8" data-name="Fill 8" d="M3,22a3.074,3.074,0,0,1-3-3.143V3.143A3.074,3.074,0,0,1,3,0,3.074,3.074,0,0,1,6,3.143V18.857A3.074,3.074,0,0,1,3,22" transform="translate(49 9)" fill="#645f6c"/>
  <path id="Fill_9" data-name="Fill 9" d="M3,22a3.074,3.074,0,0,1-3-3.143V3.143A3.074,3.074,0,0,1,3,0,3.074,3.074,0,0,1,6,3.143V18.857A3.074,3.074,0,0,1,3,22" transform="translate(37 9)" fill="#645f6c"/>
  <path id="Fill_10" data-name="Fill 10" d="M125.929,0H3.071A3.069,3.069,0,0,0,0,3.067V88.933A3.069,3.069,0,0,0,3.071,92H125.929A3.069,3.069,0,0,0,129,88.933V3.067A3.069,3.069,0,0,0,125.929,0" transform="translate(0 74)" fill="url(#linear-gradient)"/>
  <path id="Fill_11" data-name="Fill 11" d="M3,0A3.034,3.034,0,0,0,0,3.067V88.933A3.034,3.034,0,0,0,3,92H9V0H3" transform="translate(0 74)" fill="#138dc2"/>
  <path id="Fill_12" data-name="Fill 12" d="M45.938,15.313H33.688V3.063A3.063,3.063,0,0,0,30.625,0H18.375a3.063,3.063,0,0,0-3.062,3.063v12.25H3.063A3.063,3.063,0,0,0,0,18.375v12.25a3.063,3.063,0,0,0,3.063,3.063h12.25v12.25A3.063,3.063,0,0,0,18.375,49h12.25a3.063,3.063,0,0,0,3.063-3.062V33.688h12.25A3.063,3.063,0,0,0,49,30.625V18.375a3.063,3.063,0,0,0-3.062-3.062" transform="translate(40 95)" fill="#f2f2ef"/>
</svg>
