<svg id="expan" xmlns="http://www.w3.org/2000/svg" width="43.991" height="44" viewBox="0 0 43.991 44">
  <path id="Fill_1" data-name="Fill 1" d="M15.445,0H1.616A1.621,1.621,0,0,0,0,1.616V15.445a1.616,1.616,0,0,0,3.233,0V3.233H15.445a1.616,1.616,0,0,0,0-3.233Z" fill="#969696"/>
  <path id="Fill_4" data-name="Fill 4" d="M17.052,1.616A1.621,1.621,0,0,0,15.436,0H1.616a1.616,1.616,0,0,0,0,3.233H13.828V15.445a1.616,1.616,0,0,0,3.233,0V1.616Z" transform="translate(26.93)" fill="#969696"/>
  <path id="Fill_5" data-name="Fill 5" d="M17.052,1.616a1.616,1.616,0,0,0-3.233,0V13.828H1.616a1.616,1.616,0,0,0,0,3.233H15.445a1.621,1.621,0,0,0,1.617-1.616V1.616Z" transform="translate(26.93 26.939)" fill="#969696"/>
  <path id="Fill_7" data-name="Fill 7" d="M15.445,13.828H3.233V1.616A1.616,1.616,0,0,0,0,1.616V15.445a1.621,1.621,0,0,0,1.616,1.616H15.445a1.616,1.616,0,0,0,0-3.233Z" transform="translate(0 26.939)" fill="#969696"/>
</svg>
