<svg xmlns="http://www.w3.org/2000/svg" xmlns:xlink="http://www.w3.org/1999/xlink" width="1420.561" height="845.914" viewBox="0 0 1420.561 845.914">
  <defs>
    <clipPath id="clip-path">
      <path id="Clip_2" data-name="Clip 2" d="M0,0V150.7H83.326V0Z" transform="translate(0)" fill="none"/>
    </clipPath>
  </defs>
  <g id="NAV_BAR" transform="translate(1425.721 522.951) rotate(166)">
    <rect id="Rectangle_6" data-name="Rectangle 6" width="1329.671" height="537.187" transform="translate(5.319)" fill="#2d8fff"/>
    <g id="back" transform="translate(81.553 74.462)">
      <path id="Clip_2-2" data-name="Clip 2" d="M0,0V150.7H83.326V0Z" transform="translate(0)" fill="none"/>
    </g>
    <g id="loading" transform="translate(0 407.766)">
      <path id="Fill_1" data-name="Fill 1" d="M0,.4s64.774,39.38,164.407,38.493C230.8,38.3,291.46-4.537,379.953.4c59.758,3.331,125.452,50.166,192.184,49.493C640.293,49.2,711.673,2.229,815.462.4s193.228,59.028,276.2,60.489C1234.218,63.4,1332.63,11.463,1334.99,16.893v114.3H0Z" transform="translate(0 0)" fill="#fff" opacity="0.2"/>
      <path id="Fill_3" data-name="Fill 3" d="M0,69.277S47.3,2.93,215.193,5C348.909,6.648,375.987,49.406,453.765,49.5,517.827,49.575,590.931,3.174,657.63,5c66.087,1.809,125.991,49.08,190.711,49.444,63.051.353,116.2-52.694,217.02-54.388S1195.945,35.849,1239.9,49.5c68.355,21.225,95.094,24.721,95.094,24.721v28.607H0Z" transform="translate(0 28.366)" fill="#fff" opacity="0.4"/>
      <path id="Fill_5" data-name="Fill 5" d="M1334.99,23.442c-65.763,0-75.464,43.421-282.783,40.832C995.981,63.573,876.946,2.108,815.462.11,744.472-2.2,671.087,47.039,598.442,46.774,524.22,46.5,457.346,2.876,388,.11c-76.041-3.035-154.656,58.029-217.016,52.5C39.459,40.941,0,5.942,0,5.942V92.191H1334.99Z" transform="translate(0 39.004)" fill="#fff" opacity="0.6"/>
      <path id="Fill_7" data-name="Fill 7" d="M1334.99,53.444c-8.106,4.579-62.613,11.091-170.986-4.858-50.63-7.453-95.557-42.93-157.831-43.727-62.011-.794-141.854,39.995-210.441,38.866-98.643-1.617-136.1-38.68-203.865-38.866C526.613,4.678,475.456,32.217,414.306,34.01,322.843,36.693,243.2.2,170.986,0,49.106-.33,0,48.586,0,48.586V81.553H1334.99Z" transform="translate(0 49.641)" fill="#fff"/>
    </g>
  </g>
</svg>
