<svg xmlns="http://www.w3.org/2000/svg" xmlns:xlink="http://www.w3.org/1999/xlink" width="34.493" height="56.949" viewBox="0 0 34.493 56.949">
  <defs>
    <linearGradient id="linear-gradient" x1="0.5" x2="0.5" y2="1.835" gradientUnits="objectBoundingBox">
      <stop offset="0" stop-color="#01e2f6"/>
      <stop offset="1" stop-color="#1344b3"/>
    </linearGradient>
  </defs>
  <path id="Mute_icon" data-name="Mute icon" d="M31.829,56.949,1.743,1.539,4.407,0,34.493,55.41l-2.663,1.538h0Zm-8.775-.616H10.675c-1.23,0-2.193-.744-2.193-1.693a1.826,1.826,0,0,1,2.037-1.693h4.387V45.406c0-.875-.277-1.225-1.1-1.386C7.55,42.971,3.227,39.294.96,33.092a19.4,19.4,0,0,1-.941-5.08,1.811,1.811,0,0,1,.412-1.452,1.536,1.536,0,0,1,1.155-.549A1.769,1.769,0,0,1,3.31,27.859c.319,5.774,3.007,9.865,7.992,12.16a12.9,12.9,0,0,0,5.181,1.121,11.989,11.989,0,0,0,3.907-.659,1.045,1.045,0,0,0,.42-.1.58.58,0,0,1,.206-.058l1.567,2.924c-.2.057-.4.115-.594.17l-.014,0a17.921,17.921,0,0,1-2.526.6,1.245,1.245,0,0,0-.987.294,1.6,1.6,0,0,0-.266,1.092v7.388H22.74a2.248,2.248,0,0,1,2.351,1.847A1.826,1.826,0,0,1,23.053,56.334Zm4.7-16.469h0l-1.723-2.923a11.036,11.036,0,0,0,2.507-3.848,24.218,24.218,0,0,0,1.174-4.38l0-.015.01-.047c.016-.077.031-.153.046-.229l0-.005.019-.095v-.77a1.982,1.982,0,0,1,1.723-1.693A1.869,1.869,0,0,1,33.082,27.7a17.177,17.177,0,0,1-2.821,9.082,12.132,12.132,0,0,1-2.506,3.077ZM16.235,37.6a9.343,9.343,0,0,1-6.013-2.254,10.241,10.241,0,0,1-3.464-6.255A9.975,9.975,0,0,1,6.6,26.935V13.7l12.692,23.4a5.569,5.569,0,0,1-2.194.462A8.528,8.528,0,0,1,16.235,37.6Zm8.229-3.892v0L9.265,5.7a9.193,9.193,0,0,1,5.485-3.079,7.869,7.869,0,0,1,1.75-.194,10.131,10.131,0,0,1,6.053,2.17A9.12,9.12,0,0,1,26.031,10a16.109,16.109,0,0,1,.471,3.848V27.4a11.271,11.271,0,0,1-2.037,6.309Z" transform="translate(0 0)" fill="url(#linear-gradient)"/>
</svg>
