<svg xmlns="http://www.w3.org/2000/svg" width="68.985" height="23.882" viewBox="0 0 68.985 23.882">
  <path id="Shape" d="M68.784,10.737c-.174-.689-.347-1.378-.521-1.895l-1.39-1.378c-.174,0-.174-.172-.347-.172-1.39-.861-2.606-1.722-4-2.411A43.492,43.492,0,0,0,49.5,1.092,111.042,111.042,0,0,0,29.517.058,77.039,77.039,0,0,0,11.795,2.47a28.485,28.485,0,0,0-7.471,3.1A14.5,14.5,0,0,0,2.239,6.948,10.439,10.439,0,0,0,.849,8.326C-.367,11.771-.02,15.216.328,18.661A13.712,13.712,0,0,0,1.2,22.278l1.042,1.033a4.812,4.812,0,0,0,3.475.344c4-.861,7.992-1.55,11.989-2.411a3.933,3.933,0,0,0,3.127-2.756c.695-1.895,1.216-3.962,1.911-6.029.174-.344.174-.517.521-.517,1.564-.172,2.954-.344,4.517-.517a85.111,85.111,0,0,1,17.548.517c.521,0,.695.172.869.689.521,1.895,1.042,3.962,1.737,5.856a4.228,4.228,0,0,0,3.127,2.756c4,.861,7.992,1.55,11.989,2.411a4.083,4.083,0,0,0,3.475-.344l1.042-1.033a12.439,12.439,0,0,0,1.216-5,27.325,27.325,0,0,0,0-6.545Z" fill="#fff"/>
</svg>
