<svg xmlns="http://www.w3.org/2000/svg" xmlns:xlink="http://www.w3.org/1999/xlink" width="37.361" height="43.923" viewBox="0 0 37.361 43.923">
  <defs>
    <linearGradient id="linear-gradient" x1="0.5" x2="0.5" y2="1" gradientUnits="objectBoundingBox">
      <stop offset="0" stop-color="#00acba"/>
      <stop offset="1" stop-color="#add575"/>
    </linearGradient>
  </defs>
  <g id="avatar" transform="translate(0 -0.077)" opacity="0.44">
    <path id="Fill_1" data-name="Fill 1" d="M9.625,23.666H9.334a8.352,8.352,0,0,1-6.4-2.774C-.549,16.97,0,10.282.075,9.532.3,4.645,2.628,2.329,4.54,1.247A10.11,10.11,0,0,1,9.434,0h.155a10.11,10.11,0,0,1,4.893,1.283c1.887,1.08,4.183,3.387,4.411,8.249.074.75.624,7.438-2.856,11.361A8.389,8.389,0,0,1,9.625,23.666Zm-.2-21.2c-1.978,0-6.612.7-6.913,7.222a.181.181,0,0,1,0,.029A.25.25,0,0,0,2.5,9.76c-.01.059-.625,6.27,2.255,9.5a5.936,5.936,0,0,0,4.676,1.947h.091a5.97,5.97,0,0,0,4.684-1.947c2.874-3.235,2.255-9.445,2.246-9.5a.177.177,0,0,1-.009-.073c-.282-6.157-4.452-7.168-6.913-7.222Z" transform="translate(9.187 0.077)" fill="url(#linear-gradient)"/>
    <path id="Fill_3" data-name="Fill 3" d="M37.358,11.311v-.027c0-.073-.009-.146-.009-.227-.054-1.8-.173-6.012-4.12-7.358-.027-.009-.064-.018-.091-.028A26.254,26.254,0,0,1,25.588.232a1.228,1.228,0,0,0-1.41,2.01,28.356,28.356,0,0,0,8.3,3.793c2.119.755,2.356,3.02,2.419,5.094a1.783,1.783,0,0,0,.009.227,16.555,16.555,0,0,1-.191,2.81A33.477,33.477,0,0,1,18.685,17.9,33.667,33.667,0,0,1,2.64,14.158a15.615,15.615,0,0,1-.191-2.811c0-.073.009-.145.009-.227.064-2.074.3-4.339,2.42-5.094a28.574,28.574,0,0,0,8.3-3.793,1.228,1.228,0,1,0-1.41-2.01,25.956,25.956,0,0,1-7.55,3.438c-.036.009-.064.018-.091.027C.184,5.044.066,9.255.012,11.047A1.845,1.845,0,0,1,0,11.274V11.3a13.942,13.942,0,0,0,.464,4.12,1.164,1.164,0,0,0,.473.573c.273.182,6.813,4.348,17.755,4.348s17.482-4.175,17.755-4.348a1.216,1.216,0,0,0,.473-.573,14.642,14.642,0,0,0,.437-4.111Z" transform="translate(0 23.657)" fill="url(#linear-gradient)"/>
  </g>
</svg>
