<svg xmlns="http://www.w3.org/2000/svg" xmlns:xlink="http://www.w3.org/1999/xlink" width="686.274" height="621.226" viewBox="0 0 686.274 621.226">
  <defs>
    <linearGradient id="linear-gradient" y1="0.5" x2="1" y2="0.5" gradientUnits="objectBoundingBox">
      <stop offset="0" stop-color="#c5e9ff"/>
      <stop offset="1" stop-color="#2d8fff"/>
    </linearGradient>
  </defs>
  <g id="DETAIL" transform="translate(-0.727 -0.352)">
    <circle id="Oval_10" data-name="Oval 10" cx="189" cy="189" r="189" transform="translate(162 119)" fill="#d6edff" opacity="0.6"/>
    <g id="BG_TO_MASK">
      <g id="CLOUD" transform="translate(262 31)">
        <ellipse id="Oval_9" data-name="Oval 9" cx="2.482" cy="2.559" rx="2.482" ry="2.559" transform="translate(0 18.765)" fill="#338ac7"/>
        <rect id="Rectangle_21_Copy" data-name="Rectangle 21 Copy" width="21.512" height="4.265" rx="2.132" transform="translate(38.06 18.765)" fill="#338ac7"/>
        <rect id="Rectangle_21_Copy_3" data-name="Rectangle 21 Copy 3" width="21.512" height="4.265" rx="2.132" transform="translate(9.929 18.765)" fill="#338ac7"/>
        <rect id="Rectangle_21_Copy_2" data-name="Rectangle 21 Copy 2" width="21.512" height="4.265" rx="2.132" transform="translate(117.488 23.882)" fill="#338ac7"/>
        <path id="Path_16" data-name="Path 16" d="M.079,20.543S-1.146,1.624,16.567.115L35.837,16.271a1,1,0,0,0,1.351-.06L44.374,9a13.087,13.087,0,0,1,5.6-.731c2.751.28,6.129,1.534,7.768,3.221,4.291,4.419,6.367,14.43,6.158,15.2" transform="translate(56.561)" fill="none" stroke="#338ac7" stroke-miterlimit="10" stroke-width="3.5"/>
      </g>
      <g id="CLOUD_Copy" data-name="CLOUD Copy" transform="translate(517 362)">
        <ellipse id="Oval_9-2" data-name="Oval 9" cx="2.482" cy="2.559" rx="2.482" ry="2.559" transform="translate(0 18.765)" fill="#c0ddff"/>
        <rect id="Rectangle_21_Copy-2" data-name="Rectangle 21 Copy" width="21.512" height="4.265" rx="2.132" transform="translate(38.06 18.765)" fill="#338ac7"/>
        <rect id="Rectangle_21_Copy_3-2" data-name="Rectangle 21 Copy 3" width="21.512" height="4.265" rx="2.132" transform="translate(9.929 18.765)" fill="#338ac7"/>
        <rect id="Rectangle_21_Copy_2-2" data-name="Rectangle 21 Copy 2" width="21.512" height="4.265" rx="2.132" transform="translate(117.488 23.882)" fill="#338ac7"/>
        <path id="Path_16-2" data-name="Path 16" d="M.079,20.543S-1.146,1.624,16.567.115L35.837,16.271a1,1,0,0,0,1.351-.06L44.374,9a13.087,13.087,0,0,1,5.6-.731c2.751.28,6.129,1.534,7.768,3.221,4.291,4.419,6.367,14.43,6.158,15.2" transform="translate(56.561)" fill="none" stroke="#338ac7" stroke-miterlimit="10" stroke-width="3.5"/>
      </g>
      <g id="HEART" transform="translate(89 211)">
        <path id="Fill_1" data-name="Fill 1" d="M33.077,60l-4.635-4.553C11.242,40.446,0,30.332,0,17.928A17.816,17.816,0,0,1,18.184,0,19.993,19.993,0,0,1,33.077,6.848,19.993,19.993,0,0,1,47.97,0,17.816,17.816,0,0,1,66.154,17.928c0,12.4-11.242,22.518-28.442,37.519Z" transform="translate(8.269)" fill="#fff" stroke="#ff0000" stroke-miterlimit="10" stroke-width="4"/>
        <path id="Path_17" data-name="Path 17" d="M0,13.214H27.9l3.98-8.108,6.483,17.18L42.684,8.342l2.645,8.521L52.527,0l4.019,13.214H86" transform="translate(0 15.429)" fill="none" stroke="#ff0000" stroke-miterlimit="10" stroke-width="4"/>
      </g>
      <path id="Mask" d="M589.212,128.406H412.246c-14.273,0-25.838-14.374-25.838-32.1s11.565-32.1,25.838-32.1h98.231c14.266,0,25.835-14.374,25.835-32.1S524.743,0,510.477,0h-382.8c-14.27,0-25.838,14.374-25.838,32.1S113.4,64.2,127.672,64.2H238.243c14.27,0,25.838,14.374,25.838,32.1s-11.568,32.1-25.838,32.1H25.838C11.568,128.406,0,142.78,0,160.51s11.568,32.1,25.838,32.1H148.825c14.27,0,25.834,14.374,25.834,32.1s-11.565,32.1-25.834,32.1H90.13c-14.27,0-25.838,14.369-25.838,32.1s11.568,32.1,25.838,32.1h382.8c14.27,0,25.838-14.374,25.838-32.1s-11.568-32.1-25.838-32.1h-150.1c-14.27,0-25.838-14.374-25.838-32.1s11.568-32.1,25.838-32.1H589.212c14.27,0,25.834-14.369,25.834-32.1S603.482,128.406,589.212,128.406Z" transform="matrix(0.809, -0.588, 0.588, 0.809, 0.727, 361.867)" opacity="0.1" fill="url(#linear-gradient)"/>
      <g id="FAMILY" transform="translate(190 87)">
        <g id="CHARACTER_01">
          <ellipse id="Oval_5" data-name="Oval 5" cx="13.147" cy="13.468" rx="13.147" ry="13.468" transform="translate(0 47.138)" fill="#fff" stroke="#145a69" stroke-miterlimit="10" stroke-width="5"/>
          <ellipse id="Oval_5_Copy" data-name="Oval 5 Copy" cx="13.147" cy="13.468" rx="13.147" ry="13.468" transform="translate(88.744 47.138)" fill="#fff" stroke="#145a69" stroke-miterlimit="10" stroke-width="5"/>
          <g id="Rectangle_14" data-name="Rectangle 14" transform="translate(46.015 104.376)" fill="#fff" stroke="#145a69" stroke-miterlimit="10" stroke-width="5">
            <rect width="23.008" height="33.67" stroke="none"/>
            <rect x="2.5" y="2.5" width="18.008" height="28.67" fill="none"/>
          </g>
          <g id="Rectangle_12" data-name="Rectangle 12" transform="translate(9.86)" fill="#fff" stroke="#145a69" stroke-miterlimit="10" stroke-width="5">
            <rect width="95.317" height="114.477" rx="47.659" stroke="none"/>
            <rect x="2.5" y="2.5" width="90.317" height="109.477" rx="45.159" fill="none"/>
          </g>
          <g id="BLUSA" transform="translate(16.434 124.578)">
            <path id="Path_6" data-name="Path 6" d="M0,118.068H86.838s.911-87.5,0-90.326C81.532,5.616,60.779-.384,49.93.019c-.475-.2-6.627,13.283-16.063,0C34.53-.373,2.45,6.2,0,31.679,0,31.72,0,118.068,0,118.068Z" fill="#add575" stroke="#145a69" stroke-miterlimit="10" stroke-width="5"/>
            <rect id="Rectangle_11" data-name="Rectangle 11" width="6.574" height="84.174" rx="3.287" transform="translate(13.147 37.037)" fill="#145a69"/>
            <path id="Rectangle_11_Copy_3" data-name="Rectangle 11 Copy 3" d="M0,0,9.871.211l3.276,83.964H0Z" transform="matrix(0.799, -0.602, 0.602, 0.799, 71.707, 30.892)" fill="#add575"/>
            <path id="Rectangle_11_Copy" data-name="Rectangle 11 Copy" d="M0,6.574C0,3.472,3.472,0,6.574,0h0V80.808h0a3.787,3.787,0,0,1-3.367,3.367h0A3.607,3.607,0,0,1,0,80.968Z" transform="matrix(0.799, -0.602, 0.602, 0.799, 68.42, 34.307)" fill="#145a69"/>
            <rect id="Rectangle_11_Copy_2" data-name="Rectangle 11 Copy 2" width="6.574" height="84.174" rx="3.287" transform="matrix(0.799, -0.602, 0.602, 0.799, 81.567, 27.573)" fill="#145a69"/>
            <ellipse id="Oval_6" data-name="Oval 6" cx="9.86" cy="10.101" rx="9.86" ry="10.101" transform="translate(118.325 87.541)" fill="#fff" stroke="#145a69" stroke-miterlimit="10" stroke-width="5"/>
          </g>
          <path id="Rectangle_13" data-name="Rectangle 13" d="M26.294.4h0c0,6.378-7.121,13.5-13.5,13.5h0C6.751,13.9,0,7.151,0,1.108V0Z" transform="translate(46.015 74.073)" fill="#145a69"/>
          <path id="Oval_4" data-name="Oval 4" d="M29.6,33.67c15.43,0,30.213-9.016,30.213-18.313-.292,0-3.423-4.889-9.083-8.773A39.222,39.222,0,0,0,29.6,0,38.481,38.481,0,0,0,10.168,5.141,37.032,37.032,0,0,0,0,14.566C0,23.864,14.171,33.67,29.6,33.67Z" transform="translate(27.918 10.101)" fill="#d2d6de"/>
          <g id="Group" transform="translate(16.434 242.422)">
            <g id="Combined_Shape" data-name="Combined Shape" transform="translate(16.434)" fill="#d2d6de" stroke-miterlimit="10">
              <path d="M 63.23600006103516 118.7119903564453 L 46.87179946899414 118.7112274169922 L 46.87179946899414 31.70519828796387 C 46.87179946899414 23.98347091674805 40.58972549438477 17.70139694213867 32.86800003051758 17.70139694213867 C 25.14627265930176 17.70139694213867 18.86420059204102 23.98347091674805 18.86420059204102 31.70519828796387 L 18.86420059204102 118.7111053466797 L 2.5 118.7111053466797 L 2.5 2.499997854232788 L 63.23600006103516 2.499997854232788 L 63.23600006103516 118.7119903564453 Z" stroke="none"/>
              <path d="M 60.73600006103516 116.2118759155273 L 60.73600006103516 4.999996662139893 L 5 4.999996662139893 L 5 116.2111053466797 L 16.36419486999512 116.2111053466797 L 16.36419486999512 31.70519065856934 C 16.36419486999512 22.6049690246582 23.76777839660645 15.20138549804688 32.86800003051758 15.20138549804688 C 41.96822357177734 15.20138549804688 49.37180709838867 22.6049690246582 49.37180709838867 31.70519065856934 L 49.37180709838867 116.2113418579102 L 60.73600006103516 116.2118759155273 M 65.73600006103516 121.2121047973633 L 65.73500061035156 121.2121047973633 L 44.37180709838867 121.2111053466797 L 44.37180709838867 31.70519065856934 C 44.37180709838867 25.36199760437012 39.21122360229492 20.20138549804688 32.86800003051758 20.20138549804688 C 26.52477836608887 20.20138549804688 21.36419486999512 25.36199760437012 21.36419486999512 31.70519065856934 L 21.36419486999512 121.2111053466797 L 3.05175760217935e-08 121.2111053466797 L 3.05175760217935e-08 -3.156873845000518e-06 L 65.73600006103516 -3.156873845000518e-06 L 65.73600006103516 121.2111053466797 L 65.73600006103516 121.2121047973633 Z" stroke="none" fill="#145a69"/>
            </g>
            <g id="FOOT1" transform="translate(0 104.375)" fill="#d2d6de" stroke-miterlimit="10">
              <path d="M 2.804989576339722 16.75053596496582 C 3.494793176651001 13.78056144714355 5.32470703125 10.64666366577148 7.985169410705566 7.98620080947876 C 11.41980934143066 4.55155086517334 15.64409923553467 2.501020908355713 19.28512954711914 2.501020908355713 L 20.65465927124023 2.501020908355713 C 24.18388938903809 2.501020908355713 28.28168869018555 4.491820812225342 31.61627006530762 7.826400756835938 C 34.19718933105469 10.40732192993164 35.97307205200195 13.44530296325684 36.64399337768555 16.32314682006836 L 2.804989576339722 16.75053596496582 Z" stroke="none"/>
              <path d="M 6.429753303527832 14.20454978942871 L 33.04236221313477 13.86843395233154 C 32.25756454467773 12.38656044006348 31.1697940826416 10.91546535491943 29.84849166870117 9.594172477722168 C 27.01534652709961 6.761009216308594 23.49247360229492 5.00102710723877 20.65465545654297 5.00102710723877 L 19.28512763977051 5.00102710723877 C 17.86143684387207 5.00102710723877 16.24705505371094 5.422845363616943 14.61649227142334 6.220863819122314 C 12.91176509857178 7.055209159851074 11.22998332977295 8.276918411254883 9.752928733825684 9.753954887390137 C 8.395342826843262 11.11155700683594 7.253416538238525 12.64218997955322 6.429753303527832 14.20454978942871 M 1.291448370466242e-06 19.28615379333496 C 1.291448370466242e-06 10.1523904800415 10.15136528015137 0.00102729070931673 19.28512763977051 0.00102729070931673 L 20.65465545654297 0.00102729070931673 C 29.55034637451172 0.00102729070931673 39.4416389465332 9.892317771911621 39.4416389465332 18.78800964355469 L 1.291448370466242e-06 19.28615379333496 Z" stroke="none" fill="#145a69"/>
            </g>
            <g id="FOOT2" transform="translate(59.162 104.375)" fill="#d2d6de" stroke-miterlimit="10">
              <path d="M 2.804989576339722 16.75053596496582 C 3.494793176651001 13.78056144714355 5.32470703125 10.64666366577148 7.985169410705566 7.98620080947876 C 11.41980934143066 4.55155086517334 15.64409923553467 2.501020908355713 19.28512954711914 2.501020908355713 L 20.65465927124023 2.501020908355713 C 24.18388938903809 2.501020908355713 28.28168869018555 4.491820812225342 31.61627006530762 7.826400756835938 C 34.19718933105469 10.40732192993164 35.97307205200195 13.44530296325684 36.64399337768555 16.32314682006836 L 2.804989576339722 16.75053596496582 Z" stroke="none"/>
              <path d="M 6.429753303527832 14.20454978942871 L 33.04236221313477 13.86843395233154 C 32.25756454467773 12.38656044006348 31.1697940826416 10.91546535491943 29.84849166870117 9.594172477722168 C 27.01534652709961 6.761009216308594 23.49247360229492 5.00102710723877 20.65465545654297 5.00102710723877 L 19.28512763977051 5.00102710723877 C 17.86143684387207 5.00102710723877 16.24705505371094 5.422845363616943 14.61649227142334 6.220863819122314 C 12.91176509857178 7.055209159851074 11.22998332977295 8.276918411254883 9.752928733825684 9.753954887390137 C 8.395342826843262 11.11155700683594 7.253416538238525 12.64218997955322 6.429753303527832 14.20454978942871 M 1.291448370466242e-06 19.28615379333496 C 1.291448370466242e-06 10.1523904800415 10.15136528015137 0.00102729070931673 19.28512763977051 0.00102729070931673 L 20.65465545654297 0.00102729070931673 C 29.55034637451172 0.00102729070931673 39.4416389465332 9.892317771911621 39.4416389465332 18.78800964355469 L 1.291448370466242e-06 19.28615379333496 Z" stroke="none" fill="#145a69"/>
            </g>
          </g>
        </g>
        <g id="CHARACTER_02" transform="translate(177.551 20)">
          <g id="Rectangle_16" data-name="Rectangle 16" transform="translate(72.091 286.359)" fill="#fff" stroke="#145a69" stroke-miterlimit="10" stroke-width="5">
            <rect width="16.384" height="60.641" stroke="none"/>
            <rect x="2.5" y="2.5" width="11.384" height="55.641" fill="none"/>
          </g>
          <g id="Rectangle_16_Copy" data-name="Rectangle 16 Copy" transform="translate(88.475 286.359)" fill="#fff" stroke="#145a69" stroke-miterlimit="10" stroke-width="5">
            <rect width="16.384" height="60.641" stroke="none"/>
            <rect x="2.5" y="2.5" width="11.384" height="55.641" fill="none"/>
          </g>
          <path id="Path_9" data-name="Path 9" d="M2.852-1.213a1,1,0,0,1,1.94-.313L17.748,34.145C17.492,60.929,18,99.668,18,99.668H0Z" transform="translate(101.582 150.199)" fill="#fff" stroke="#145a69" stroke-miterlimit="10" stroke-width="5"/>
          <path id="Path_7" data-name="Path 7" d="M.548,139.475H47.236V0H36.028S29.639,6.422,26.28,6.439C22.892,6.456,18.07,3.928,15.815,0,15.788,0,0,.775,0,.775Z" transform="translate(62.26 148.233)" fill="#add575" stroke="#145a69" stroke-miterlimit="10" stroke-width="5"/>
          <path id="Path_8" data-name="Path 8" d="M.867,51.2,59.361-2.648a1,1,0,0,1,1.677.736V31.32S23.514,49.762,16.13,54.7c-.25.167-2.02,6-5.053,8.028-3.215,2.153-7.727.479-8.916-.663C-.707,59.308-.256,52.228.867,51.2Z" transform="translate(0 148.233)" fill="#fff" stroke="#145a69" stroke-miterlimit="10" stroke-width="5"/>
          <path id="Path_10" data-name="Path 10" d="M8.7,163.531H120.835s-20.792-35.649,0-60.154,0-71.075,0-71.075S94.722-4.7,57.391.685,8.7,32.3,8.7,32.3-8.7,68.555,8.7,103.377,8.7,163.531,8.7,163.531Z" transform="translate(13.107 0)" fill="#d2d6de" stroke="#145a69" stroke-miterlimit="10" stroke-width="5"/>
          <ellipse id="Oval_5-2" data-name="Oval 5" cx="13.107" cy="13.476" rx="13.107" ry="13.476" transform="translate(26.215 53.903)" fill="#fff" stroke="#145a69" stroke-miterlimit="10" stroke-width="5"/>
          <g id="Rectangle_15" data-name="Rectangle 15" transform="translate(32.768 20.214)" fill="#fff" stroke-miterlimit="10">
            <path d="M 52.47476959228516 88.46116638183594 L 36 88.46116638183594 C 31.47642707824707 88.46116638183594 27.08949851989746 87.57578277587891 22.96105575561523 85.82959747314453 C 18.97219848632813 84.1424560546875 15.38931369781494 81.72662353515625 12.31192779541016 78.64923858642578 C 9.234541893005371 75.57185363769531 6.818713188171387 71.98896789550781 5.131570339202881 68.00011444091797 C 3.385384798049927 63.87166976928711 2.499999046325684 59.4847412109375 2.499999046325684 54.9611701965332 L 2.499999046325684 35.99999618530273 C 2.499999046325684 31.47642517089844 3.385384798049927 27.08949661254883 5.131570339202881 22.9610538482666 C 6.818713188171387 18.97219657897949 9.234541893005371 15.38931179046631 12.31192779541016 12.31192588806152 C 15.38931369781494 9.234539985656738 18.97219848632813 6.818711757659912 22.96105575561523 5.131568908691406 C 26.89522171020508 3.467555284500122 31.06378936767578 2.585239410400391 35.36197662353516 2.505883455276489 C 35.19942092895508 3.358475923538208 35.02325439453125 4.333786010742188 34.85702896118164 5.35688304901123 C 33.88557052612305 11.33606910705566 34.13386917114258 13.46565437316895 34.40515518188477 14.54735469818115 C 35.25382614135742 17.93132591247559 37.9254150390625 23.11028289794922 41.20494079589844 26.04296875 C 45.8221435546875 30.17185401916504 53.43357086181641 31.67056846618652 57.42312622070313 31.67056846618652 C 57.84273910522461 31.67056846618652 58.23963928222656 31.65549278259277 58.61266708374023 31.62547874450684 C 58.85705947875977 32.53489303588867 59.22647476196289 33.57387542724609 59.78264236450195 34.695068359375 C 61.70192718505859 38.5641975402832 65.01007080078125 41.7746696472168 69.61518859863281 44.23729705810547 C 70.80265808105469 44.87231063842773 72.42877197265625 45.18099594116211 74.58641052246094 45.18099594116211 C 78.24954223632813 45.18099594116211 82.92527008056641 44.28557205200195 85.97476959228516 43.59824371337891 L 85.97476959228516 54.9611701965332 C 85.97476959228516 59.4847412109375 85.08938598632813 63.87166976928711 83.34320068359375 68.00011444091797 C 81.65605926513672 71.98896789550781 79.24022674560547 75.57185363769531 76.162841796875 78.64923858642578 C 73.08545684814453 81.72662353515625 69.50257110595703 84.1424560546875 65.51371002197266 85.82959747314453 C 61.38526916503906 87.57578277587891 56.99834060668945 88.46116638183594 52.47476959228516 88.46116638183594 Z M 63.04922485351563 28.8331298828125 L 58.2332649230957 28.07754516601563 L 58.17085647583008 28.06371116638184 C 58.17085647583008 27.90225410461426 58.19155502319336 27.74049758911133 58.23237228393555 27.58292579650879 L 63.14831161499023 28.35421180725098 C 63.14673614501953 28.38140106201172 63.13307952880859 28.57252311706543 63.04922485351563 28.8331298828125 Z" stroke="none"/>
            <path d="M 32.34828567504883 5.211151123046875 C 29.45029449462891 5.549446105957031 26.63248443603516 6.293106079101563 23.93492889404297 7.434059143066406 C 20.24407196044922 8.99517822265625 16.92829132080078 11.23108673095703 14.07969665527344 14.07968139648438 C 11.23110198974609 16.92827606201172 8.995193481445313 20.24405670166016 7.434074401855469 23.93491363525391 C 5.818954467773438 27.75353622436523 5.000007629394531 31.81282043457031 5.000007629394531 35.9999885559082 L 5.000007629394531 54.96115493774414 C 5.000007629394531 59.14834594726563 5.818954467773438 63.20760726928711 7.434074401855469 67.02622985839844 C 8.995193481445313 70.71708679199219 11.23110198974609 74.03286743164063 14.07969665527344 76.88146209716797 C 16.92829132080078 79.73005676269531 20.24407196044922 81.96596527099609 23.93492889404297 83.52708435058594 C 27.7535514831543 85.14220428466797 31.81281280517578 85.96115112304688 36.00000381469727 85.96115112304688 L 52.47476577758789 85.96115112304688 C 56.66195678710938 85.96115112304688 60.72121810913086 85.14220428466797 64.53984069824219 83.52708435058594 C 68.23069763183594 81.96596527099609 71.54647827148438 79.73005676269531 74.39507293701172 76.88146209716797 C 77.24366760253906 74.03286743164063 79.47957611083984 70.71708679199219 81.04069519042969 67.02622985839844 C 82.65581512451172 63.20760726928711 83.47476196289063 59.14834594726563 83.47476196289063 54.96115493774414 L 83.47476196289063 46.66873550415039 C 80.66164398193359 47.2025146484375 77.36507415771484 47.68101119995117 74.58643341064453 47.68101119995117 C 71.97140502929688 47.68101119995117 70.01715087890625 47.28727340698242 68.43626403808594 46.44186782836914 C 61.82339477539063 42.90556335449219 58.39496994018555 38.21385955810547 56.81024551391602 34.16191864013672 C 51.58785629272461 34.01708984375 44.16710662841797 32.0456428527832 39.53847885131836 27.90653610229492 C 35.88752746582031 24.6417236328125 32.91938400268555 18.90017700195313 31.98024368286133 15.15548706054688 C 31.63237762451172 13.7684326171875 31.36286544799805 11.38471984863281 32.34828567504883 5.211151123046875 M 36.00000381469727 -1.52587890625e-05 L 38.42709732055664 -1.52587890625e-05 C 38.42709732055664 -1.52587890625e-05 36.01964569091797 10.70777130126953 36.83005142211914 13.93920135498047 C 37.56035995483398 16.85120391845703 40.01919555664063 21.62884521484375 42.87141036987305 24.17938995361328 C 46.66864013671875 27.57503890991211 53.41592407226563 29.17055892944336 57.42314147949219 29.17055892944336 C 59.23647308349609 29.17055892944336 60.48819732666016 28.84405517578125 60.65248870849609 28.20985794067383 C 60.58636474609375 29.35316848754883 60.9907341003418 36.790283203125 70.79409790039063 42.0327262878418 C 71.66635894775391 42.49917984008789 73.01494598388672 42.68100738525391 74.58642578125 42.68100738525391 C 80.13726043701172 42.68100738525391 88.47476196289063 40.41360855102539 88.47476196289063 40.41360855102539 L 88.47476196289063 54.96115493774414 C 88.47476196289063 74.84341430664063 72.35702514648438 90.96115112304688 52.47476577758789 90.96115112304688 L 36.00000381469727 90.96115112304688 C 16.11774444580078 90.96115112304688 7.62939453125e-06 74.84341430664063 7.62939453125e-06 54.96115493774414 L 7.62939453125e-06 35.9999885559082 C 7.62939453125e-06 16.11775207519531 16.11774444580078 -1.52587890625e-05 36.00000381469727 -1.52587890625e-05 Z M 60.67086029052734 28.06370162963867 C 60.67086029052734 28.11411285400391 60.6646728515625 28.16282272338867 60.65248870849609 28.20985794067383 C 60.65727615356445 28.12709045410156 60.66452789306641 28.0772819519043 60.67086029052734 28.06370162963867 Z" stroke="none" fill="#145a69"/>
          </g>
          <path id="Rectangle_13-2" data-name="Rectangle 13" d="M26.215.435h0c0,6.382-7.126,13.508-13.508,13.508h0C6.7,13.943,0,7.238,0,1.236V.033s.981-.065,5.222,0a13.606,13.606,0,0,0,2.3,5.427C8.9,7.214,11.374,8.689,13.107,8.72c1.671.03,3.089-1.31,4.414-2.969C19.149,3.714,19.819.74,20.009.435,21.328.431,26.215.435,26.215.435Z" transform="translate(65.537 80.822)" fill="#145a69"/>
        </g>
        <g id="CHARACTER_03" transform="translate(124.386 152)">
          <g id="Group-2" data-name="Group" transform="translate(9.849 137.734)">
            <g id="Combined_Shape-2" data-name="Combined Shape" transform="translate(9.849)" fill="#d2d6de" stroke-miterlimit="10">
              <path d="M 40.17800140380859 71.40706634521484 L 27.12220001220703 71.40634155273438 L 27.12220001220703 23.18130683898926 C 27.12220001220703 20.13486099243164 24.64334106445313 17.65640258789063 21.59640121459961 17.65640258789063 C 18.54996490478516 17.65640258789063 16.07150650024414 20.13486099243164 16.07150650024414 23.18130683898926 L 16.07150650024414 71.40620422363281 L 2.500000715255737 71.40620422363281 L 2.500000715255737 2.500001907348633 L 40.17800140380859 2.500001907348633 L 40.17800140380859 71.40706634521484 Z" stroke="none"/>
              <path d="M 37.67800140380859 68.90693664550781 L 37.67800140380859 5.000014781951904 L 5.000000476837158 5.000014781951904 L 5.000000476837158 68.90621185302734 L 13.57150077819824 68.90621185302734 L 13.57150077819824 23.18129730224609 C 13.57150077819824 18.75636291503906 17.17145729064941 15.15640640258789 21.59639167785645 15.15640640258789 C 26.02182769775391 15.15640640258789 29.62219619750977 18.75636291503906 29.62219619750977 23.18129730224609 L 29.62219619750977 68.90648651123047 L 37.67800140380859 68.90693664550781 M 42.67800140380859 73.90721130371094 L 42.677001953125 73.90721130371094 L 24.62219619750977 73.90621185302734 L 24.62219619750977 23.18129730224609 C 24.62219619750977 21.51336288452148 23.26482772827148 20.15640640258789 21.59639167785645 20.15640640258789 C 19.92845726013184 20.15640640258789 18.57150077819824 21.51336288452148 18.57150077819824 23.18129730224609 L 18.57150077819824 73.90621185302734 L 7.019042982392421e-07 73.90621185302734 L 7.019042982392421e-07 1.488063662691275e-05 L 42.67800140380859 1.488063662691275e-05 L 42.67800140380859 73.90621185302734 L 42.67800140380859 73.90721130371094 Z" stroke="none" fill="#145a69"/>
            </g>
            <g id="FOOT1-2" data-name="FOOT1" transform="translate(0 63.827)" fill="#d2d6de" stroke-miterlimit="10">
              <path d="M 2.968804836273193 10.89876174926758 C 3.545244932174683 9.260591506958008 4.631470680236816 7.580630779266357 6.105690956115723 6.106404304504395 C 8.363471031188965 3.848634243011475 11.10433101654053 2.500714302062988 13.43750095367432 2.500714302062988 C 15.63439083099365 2.500714302062988 18.22025108337402 3.774994373321533 20.35467147827148 5.909424304962158 C 21.80710983276367 7.361856460571289 22.86121559143066 9.023216247558594 23.38656997680664 10.6289176940918 L 2.968804836273193 10.89876174926758 Z" stroke="none"/>
              <path d="M 7.431797027587891 8.339553833007813 L 19.06571578979492 8.185794830322266 C 18.91244697570801 8.012823104858398 18.75263214111328 7.842912673950195 18.58690643310547 7.677187442779541 C 16.96101379394531 6.051295280456543 14.93975257873535 5.000710487365723 13.43750667572021 5.000710487365723 C 11.80304527282715 5.000710487365723 9.61902904510498 6.128618240356445 7.873460292816162 7.874172210693359 C 7.721427440643311 8.026206016540527 7.574121475219727 8.181520462036133 7.431797027587891 8.339553833007813 M -1.328688426838198e-06 13.43821811676025 C -1.328688426838198e-06 7.089356422424316 7.088644981384277 0.000710455933585763 13.43750667572021 0.000710455933585763 C 19.49616813659668 0.000710455933585763 26.26338386535645 6.76792573928833 26.26338386535645 12.82660293579102 L 26.26338386535645 13.09111022949219 L -1.328688426838198e-06 13.43821811676025 Z" stroke="none" fill="#145a69"/>
            </g>
            <g id="FOOT2-2" data-name="FOOT2" transform="translate(36.112 63.827)" fill="#d2d6de" stroke-miterlimit="10">
              <path d="M 2.968804836273193 10.89876174926758 C 3.545244932174683 9.260591506958008 4.631470680236816 7.580630779266357 6.105690956115723 6.106404304504395 C 8.363471031188965 3.848634243011475 11.10433101654053 2.500714302062988 13.43750095367432 2.500714302062988 C 15.63439083099365 2.500714302062988 18.22025108337402 3.774994373321533 20.35467147827148 5.909424304962158 C 21.80710983276367 7.361856460571289 22.86121559143066 9.023216247558594 23.38656997680664 10.6289176940918 L 2.968804836273193 10.89876174926758 Z" stroke="none"/>
              <path d="M 7.431797027587891 8.339553833007813 L 19.06571578979492 8.185794830322266 C 18.91244697570801 8.012823104858398 18.75263214111328 7.842912673950195 18.58690643310547 7.677187442779541 C 16.96101379394531 6.051295280456543 14.93975257873535 5.000710487365723 13.43750667572021 5.000710487365723 C 11.80304527282715 5.000710487365723 9.61902904510498 6.128618240356445 7.873460292816162 7.874172210693359 C 7.721427440643311 8.026206016540527 7.574121475219727 8.181520462036133 7.431797027587891 8.339553833007813 M -1.328688426838198e-06 13.43821811676025 C -1.328688426838198e-06 7.089356422424316 7.088644981384277 0.000710455933585763 13.43750667572021 0.000710455933585763 C 19.49616813659668 0.000710455933585763 26.26338386535645 6.76792573928833 26.26338386535645 12.82660293579102 L 26.26338386535645 13.09111022949219 L -1.328688426838198e-06 13.43821811676025 Z" stroke="none" fill="#145a69"/>
            </g>
          </g>
          <g id="Rectangle_17" data-name="Rectangle 17" transform="translate(13.132 73.906)" fill="#00acba" stroke="#145a69" stroke-miterlimit="10" stroke-width="5">
            <path d="M27.9,0h0a27.9,27.9,0,0,1,27.9,27.9V71.222a0,0,0,0,1,0,0H0a0,0,0,0,1,0,0V27.9A27.9,27.9,0,0,1,27.9,0Z" stroke="none"/>
            <path d="M27.9,2.5h0a25.4,25.4,0,0,1,25.4,25.4V68.071a.651.651,0,0,1-.651.651H3.151a.651.651,0,0,1-.651-.651V27.9A25.4,25.4,0,0,1,27.9,2.5Z" fill="none"/>
          </g>
          <g id="Rectangle_18" data-name="Rectangle 18" transform="translate(9.849 20.156)" fill="#fff" stroke-miterlimit="10">
            <path d="M 3.509307622909546 56.38099670410156 C 3.420106410980225 56.3653678894043 3.16546368598938 56.252197265625 2.897135019302368 55.98387145996094 C 2.628789663314819 55.71552658081055 2.515624523162842 55.46086502075195 2.500005006790161 55.37167739868164 L 2.500005006790161 3.24936056137085 C 4.573173522949219 3.78065824508667 7.50783634185791 4.501474857330322 10.8425350189209 5.228250026702881 C 19.49810600280762 7.114680290222168 26.34322547912598 8.07118034362793 31.18776512145996 8.07118034362793 C 36.03230667114258 8.07118034362793 42.87742614746094 7.114680290222168 51.53300476074219 5.228250026702881 C 54.80337142944336 4.515495300292969 57.6889762878418 3.808474540710449 59.75459289550781 3.280319452285767 C 59.5770378112793 5.703740119934082 59.20454788208008 8.148224830627441 58.64083480834961 10.5820198059082 C 57.84465408325195 14.01950073242188 56.66106414794922 17.46360015869141 55.1229362487793 20.81867980957031 C 53.6159553527832 24.10581970214844 51.76204681396484 27.32287979125977 49.61270523071289 30.3805103302002 C 47.48646545410156 33.40528106689453 45.06680679321289 36.2805290222168 42.42093658447266 38.92639923095703 C 39.77505493164063 41.57226943969727 36.89980697631836 43.9919319152832 33.87504577636719 46.11817169189453 C 30.81741523742676 48.26750946044922 27.60034561157227 50.12142181396484 24.3132152557373 51.62841033935547 C 20.9581356048584 53.16653060913086 17.51402473449707 54.35013198852539 14.0765552520752 55.14630126953125 C 10.54428100585938 55.96443939208984 6.98909854888916 56.37983322143555 3.509307622909546 56.38099670410156 Z" stroke="none"/>
            <path d="M 5.000003814697266 6.450908660888672 L 5.000003814697266 53.85381698608398 C 7.812385559082031 53.75264358520508 10.66880035400391 53.36941146850586 13.51244354248047 52.71078109741211 C 16.78592681884766 51.95257949829102 20.06928634643555 50.82382202148438 23.27134323120117 49.35584259033203 C 26.42024612426758 47.91223907470703 29.50412368774414 46.13479995727539 32.43734741210938 44.07292175292969 C 35.34462738037109 42.02925872802734 38.10882568359375 39.70296096801758 40.65316772460938 37.15863800048828 C 43.19748687744141 34.61429977416992 45.52378463745117 31.85009956359863 47.56744384765625 28.94281959533691 C 49.62932586669922 26.00960159301758 51.40676498413086 22.92572021484375 52.85036468505859 19.77682113647461 C 54.31834411621094 16.57476043701172 55.44710540771484 13.29140090942383 56.20530700683594 10.01792144775391 C 56.47104263305664 8.870601654052734 56.69194793701172 7.721183776855469 56.86758422851563 6.573406219482422 C 49.80820846557617 8.267845153808594 38.8100700378418 10.5711784362793 31.18776512145996 10.5711784362793 C 23.3803596496582 10.5711784362793 12.03043746948242 8.154441833496094 5.000003814697266 6.450908660888672 M 3.814697265625e-06 0 C 3.814697265625e-06 0 19.93712615966797 5.571178436279297 31.18776512145996 5.571178436279297 C 42.43840789794922 5.571178436279297 62.37552642822266 0 62.37552642822266 0 C 62.37552642822266 30.00978088378906 33.50430297851563 58.88100051879883 3.494525909423828 58.88100051879883 C 1.846786499023438 58.88100051879883 3.814697265625e-06 57.03419876098633 3.814697265625e-06 55.38645935058594 L 3.814697265625e-06 0 Z" stroke="none" fill="#145a69"/>
          </g>
          <path id="Rectangle_13-3" data-name="Rectangle 13" d="M13.542.207h0c0,3.276-3.669,6.945-6.945,6.945h0C3.485,7.152,0,3.667,0,.555V0Z" transform="translate(36.112 57.109)" fill="#145a69"/>
          <path id="Path_11" data-name="Path 11" d="M16.843.618A33.356,33.356,0,0,0,35.919,8.1c11.192.771,24.5.771,24.5.771s14.7,6.251,9.648,16.517S49.39,37.61,49.39,37.61,24.923,37.61,7.113,18.8Q-10.343.366,15.042,0A5.37,5.37,0,0,1,16.843.618Z" transform="translate(0 0.007)" fill="#d2d6de" stroke="#145a69" stroke-miterlimit="10" stroke-width="5"/>
        </g>
      </g>
    </g>
  </g>
</svg>
