<svg xmlns="http://www.w3.org/2000/svg" width="42.087" height="51.786" viewBox="0 0 42.087 51.786">
  <g id="placeholder" transform="translate(-0.001 -0.083)">
    <path id="Fill_1" data-name="Fill 1" d="M21.045,51.786a3.536,3.536,0,0,1-2.274-.822C8.718,42.628,4.058,34.874,1.92,29.838A21.343,21.343,0,0,1,.518,25.7c-.092-.371-.136-.618-.148-.706A21.048,21.048,0,0,1,20.3.012C20.537,0,20.78,0,21.02,0A21.048,21.048,0,0,1,42.088,21.044a21.549,21.549,0,0,1-.369,3.949c-.011.088-.055.335-.148.706a20.611,20.611,0,0,1-1.4,4.139C38.036,34.865,33.38,42.61,23.32,50.964A3.538,3.538,0,0,1,21.045,51.786Zm.013-48c-.21,0-.424,0-.634.011A17.26,17.26,0,0,0,3.868,19.348a16.733,16.733,0,0,0,.263,4.971.2.2,0,0,0,.005.042.2.2,0,0,1,.005.043c0,.006.03.144.095.431v.022a17.117,17.117,0,0,0,1.158,3.423.157.157,0,0,0,.019.048l0,0c1.959,4.625,6.263,11.779,15.639,19.6,9.38-7.833,13.682-14.982,15.639-19.6a.169.169,0,0,1,.022-.053,17.2,17.2,0,0,0,1.158-3.423v-.022c.06-.266.089-.406.095-.431a.2.2,0,0,1,.005-.043.2.2,0,0,0,.005-.042A17.254,17.254,0,0,0,21.058,3.781Z" transform="translate(0 0.083)" fill="#fff"/>
    <path id="Fill_4" data-name="Fill 4" d="M11.205,0a11.206,11.206,0,0,0,0,22.411,1.9,1.9,0,1,0,0-3.792,7.424,7.424,0,1,1,5.635-2.6,1.9,1.9,0,0,0,2.886,2.464A11.2,11.2,0,0,0,11.205,0Z" transform="translate(9.839 10.132)" fill="#fff"/>
  </g>
</svg>
