<svg xmlns="http://www.w3.org/2000/svg" xmlns:xlink="http://www.w3.org/1999/xlink" width="25.9" height="31.868" viewBox="0 0 25.9 31.868">
  <defs>
    <linearGradient id="linear-gradient" y1="0.5" x2="1" y2="0.5" gradientUnits="objectBoundingBox">
      <stop offset="0" stop-color="#2d8fff"/>
      <stop offset="1" stop-color="#9bcaff"/>
    </linearGradient>
  </defs>
  <g id="placeholder" transform="translate(0 -0.051)">
    <path id="Fill_1" data-name="Fill 1" d="M12.951,31.868a2.175,2.175,0,0,1-1.4-.506c-6.187-5.131-9.054-9.9-10.369-13a13.112,13.112,0,0,1-.862-2.547,4.213,4.213,0,0,1-.091-.435A12.951,12.951,0,0,1,12.49.007c.148,0,.3-.007.446-.007A12.954,12.954,0,0,1,25.9,12.95a13.294,13.294,0,0,1-.227,2.43c0,.016-.023.16-.091.435a12.688,12.688,0,0,1-.862,2.547c-1.314,3.094-4.18,7.861-10.37,13A2.171,2.171,0,0,1,12.951,31.868Zm.007-29.541c-.129,0-.26,0-.39.007A10.621,10.621,0,0,0,2.381,11.906a10.285,10.285,0,0,0,.162,3.059.13.13,0,0,0,0,.026.13.13,0,0,1,0,.026c.006.028.024.113.059.265V15.3A10.467,10.467,0,0,0,3.32,17.4a.113.113,0,0,0,.013.032C4.54,20.282,7.189,24.686,12.957,29.5c5.772-4.819,8.42-9.219,9.625-12.061a.11.11,0,0,1,.013-.032,10.561,10.561,0,0,0,.713-2.107v-.013c.035-.152.053-.237.059-.266a.13.13,0,0,1,0-.026.129.129,0,0,0,0-.026A10.618,10.618,0,0,0,12.958,2.327Z" transform="translate(0 0.051)" fill="url(#linear-gradient)"/>
    <path id="Fill_4" data-name="Fill 4" d="M6.9,0a6.9,6.9,0,0,0,0,13.791,1.167,1.167,0,1,0,0-2.333,4.568,4.568,0,1,1,3.467-1.6,1.168,1.168,0,1,0,1.776,1.516A6.9,6.9,0,0,0,6.9,0Z" transform="translate(6.055 6.235)" fill="url(#linear-gradient)"/>
  </g>
</svg>
