<svg xmlns="http://www.w3.org/2000/svg" width="959" height="634" viewBox="0 0 959 634">
  <g id="Group_12" data-name="Group 12" transform="translate(2179 -262)">
    <g id="detail" transform="translate(-2179 896)">
      <g id="Group_11" data-name="Group 11">
        <g id="Rectangle_25" data-name="Rectangle 25" transform="translate(0 -634)" fill="#00acba" stroke="#979797" stroke-miterlimit="10" stroke-width="1">
          <rect width="959" height="633" stroke="none"/>
          <rect x="0.5" y="0.5" width="958" height="632" fill="none"/>
        </g>
      </g>
      <g id="loading" transform="translate(0 -94)">
        <path id="Fill_1" data-name="Fill 1" d="M0,.283S46.531,28.5,118.1,27.864c47.692-.422,91.269-31.114,154.84-27.58C315.87,2.67,363.062,36.227,411,35.745,459.959,35.252,511.236,1.6,585.793.283S724.6,42.576,784.206,43.623C886.61,45.424,957.3,8.213,959,12.1V94H0Z" transform="translate(0 0)" fill="#fff" opacity="0.2"/>
        <path id="Fill_3" data-name="Fill 3" d="M0,49.71S33.982,2.1,154.585,3.587c96.056,1.183,115.507,31.865,171.38,31.932,46.019.054,98.534-33.242,146.448-31.932,47.474,1.3,90.507,35.218,137,35.479C654.705,39.32,692.888,1.256,765.31.04s93.806,25.684,125.379,35.479C939.792,50.749,959,53.258,959,53.258V73.785H0Z" transform="translate(0 20.215)" fill="#fff" opacity="0.4"/>
        <path id="Fill_5" data-name="Fill 5" d="M959,16.705c-47.242,0-54.21,30.944-203.139,29.1C715.47,45.3,629.961,1.5,585.793.078c-51-1.647-103.713,33.444-155.9,33.255C376.578,33.139,328.538,2.049,278.724.078c-54.625-2.163-111.1,41.354-155.9,37.411C28.345,29.177,0,4.234,0,4.234V65.7H959Z" transform="translate(0 28.301)" fill="#fff" opacity="0.6"/>
        <path id="Fill_7" data-name="Fill 7" d="M959,38.417c-5.823,3.291-44.978,7.972-122.829-3.492C799.8,29.568,767.527,4.066,722.792,3.493c-44.546-.571-101.9,28.75-151.172,27.939-70.861-1.163-97.772-27.8-146.448-27.939C378.3,3.363,341.547,23.159,297.62,24.448,231.917,26.376,174.7.141,122.829,0,35.276-.237,0,34.925,0,34.925v23.7H959Z" transform="translate(0 35.376)" fill="#fff"/>
      </g>
    </g>
    <path id="Mask" d="M478.972,104.382H335.116c-11.6,0-21-11.684-21-26.1s9.4-26.094,21-26.094h79.852c11.6,0,21-11.684,21-26.1S426.565,0,414.968,0H103.785c-11.6,0-21,11.684-21,26.094s9.4,26.1,21,26.1h89.884c11.6,0,21,11.684,21,26.094s-9.4,26.1-21,26.1H21c-11.6,0-21,11.684-21,26.1s9.4,26.094,21,26.094H120.98c11.6,0,21,11.684,21,26.1s-9.4,26.1-21,26.1H73.267c-11.6,0-21,11.681-21,26.1s9.4,26.094,21,26.094h311.18c11.6,0,21-11.684,21-26.094s-9.4-26.1-21-26.1H262.427c-11.6,0-21-11.684-21-26.1s9.4-26.1,21-26.1H478.972c11.6,0,21-11.681,21-26.094S490.572,104.382,478.972,104.382Z" transform="matrix(0.809, -0.588, 0.588, 0.809, -1978, 582.957)" fill="#fff" opacity="0.143"/>
  </g>
</svg>
