<svg width="959" height="634" xmlns="http://www.w3.org/2000/svg">

 <g>
  <title>background</title>
  <rect fill="none" id="canvas_background" height="402" width="582" y="-1" x="-1"/>
 </g>
 <g>
  <title>Layer 1</title>
  <g id="Group_12">
   <g id="detail">
    <g id="Group_11">
     <g stroke-miterlimit="10" stroke="#979797" fill="#00acba" id="Rectangle_25">
      <rect id="svg_1" x="0" y="0" height="633" width="959"/>
      <rect id="svg_2" fill="none" height="632" width="958" y="0.5" x="0.5"/>
     </g>
    </g>
   </g>
   <path opacity="0.143" fill="#fff" d="m649.864964,123.766502l-116.379504,84.587328c-9.3844,6.8208 -23.859192,2.895644 -32.3358,-8.7669s-7.738672,-26.637246 1.645728,-33.458046l64.600268,-46.952976c9.3844,-6.8208 10.118808,-21.800356 1.6422,-33.4629s-22.946771,-15.576228 -32.328744,-8.757192l-251.747047,182.975604c-9.3844,6.8208 -10.118808,21.800356 -1.645728,33.458046s22.9514,15.5877 32.3358,8.7669l72.716156,-52.851792c9.3844,-6.8208 23.859192,-2.895644 32.332272,8.762046s7.7422,26.6421 -1.6422,33.4629l-139.689221,101.529372c-9.3844,6.8208 -10.118808,21.800356 -1.6422,33.4629s22.947872,15.582846 32.332272,8.762046l80.88382,-58.78824c9.3844,-6.8208 23.859192,-2.895644 32.3358,8.7669s7.7422,26.6421 -1.6422,33.4629l-38.599817,28.055244c-9.3844,6.8208 -10.120572,21.797929 -1.6422,33.4629s22.947872,15.582846 32.332272,8.762046l251.74462,-182.97384c9.3844,-6.8208 10.118808,-21.800356 1.645728,-33.458046s-22.9514,-15.5877 -32.3358,-8.7669l-98.71418,71.74776c-9.3844,6.8208 -23.859192,2.895644 -32.3358,-8.7669s-7.7422,-26.6421 1.6422,-33.4629l175.184905,-127.32846c9.3844,-6.8208 10.120572,-21.797929 1.645728,-33.458046s-22.954928,-15.592554 -32.339328,-8.771754z" id="Mask"/>
  </g>
 </g>
</svg>