<svg xmlns="http://www.w3.org/2000/svg" xmlns:xlink="http://www.w3.org/1999/xlink" width="207.976" height="208" viewBox="0 0 207.976 208">
  <defs>
    <linearGradient id="linear-gradient" y1="0.5" x2="1" y2="0.5" gradientUnits="objectBoundingBox">
      <stop offset="0" stop-color="#2d8fff"/>
      <stop offset="1" stop-color="#9bcaff"/>
    </linearGradient>
    <clipPath id="clip-path">
      <path id="Clip_6" data-name="Clip 6" d="M0,110V0H207.976V110H0Z" transform="translate(0.024 0)" fill="none"/>
    </clipPath>
  </defs>
  <g id="medicine" transform="translate(-0.024)">
    <path id="Fill_1" data-name="Fill 1" d="M12,6.073V176.927a6,6,0,1,1-12,0V6.073A5.821,5.821,0,0,1,6,0a5.821,5.821,0,0,1,6,6.073" transform="translate(97 25)" fill="url(#linear-gradient)"/>
    <path id="Fill_2" data-name="Fill 2" d="M6,6.073V176.927A5.978,5.978,0,0,1,0,183V0A5.821,5.821,0,0,1,6,6.073" transform="translate(104 25)" fill="url(#linear-gradient)"/>
    <path id="Fill_3" data-name="Fill 3" d="M103.856,61.084H42.764a6.114,6.114,0,0,0,0,12.229H79.419c24.192,0,24.192,36.687,0,36.687H54.982c-8.064,0-8.064-12.229,0-12.229H79.419c8.064,0,8.064-12.229,0-12.229H42.764c-24.192,0-24.192-36.687,0-36.687h61.092a6.114,6.114,0,0,0,0-12.229H18.327A18.311,18.311,0,0,1,0,18.283V6.054c0-8.072,12.218-8.072,12.218,0V18.283A6.052,6.052,0,0,0,18.327,24.4h85.528c24.192,0,24.192,36.687,0,36.687" transform="translate(37 86)" fill="url(#linear-gradient)"/>
    <path id="Fill_4" data-name="Fill 4" d="M12.475,37H0V24.667H12.475c8.233,0,8.233-12.333,0-12.333H0V0H12.475c24.7,0,24.7,37,0,37" transform="translate(104 159)" fill="url(#linear-gradient)"/>
    <g id="Group_9" data-name="Group 9" transform="translate(0 38)">
      <path id="Clip_6-2" data-name="Clip 6" d="M0,110V0H207.976V110H0Z" transform="translate(0.024 0)" fill="none"/>
      <g id="Group_9-2" data-name="Group 9" clip-path="url(#clip-path)">
        <path id="Fill_5" data-name="Fill 5" d="M36.563,36.667H0V24.444H36.563a6.111,6.111,0,0,0,0-12.222H0V0H36.563c24.131,0,24.131,36.667,0,36.667" transform="translate(103.588 73.333)" fill="url(#linear-gradient)"/>
        <path id="Fill_7" data-name="Fill 7" d="M205.69,50.233c-6.825-5.744-12.645-9.9-17.764-18.211L178.42,16.989C171.961,6.477,159.042,0,144.9,0c-12.432,0-24.01,5.011-31.078,13.567-.975,1.222-3.9,4.644-4.753,5.744a7.06,7.06,0,0,1-5.484,2.078A8.862,8.862,0,0,1,97.5,18.577l-4.145-5.011C86.282,5.011,74.7,0,62.273,0,48.136,0,35.217,6.477,28.757,16.989L19.252,32.022C14.132,40.333,9.136,44.489,2.311,50.233A6.1,6.1,0,0,0,6.089,61.111H201.912a6.1,6.1,0,0,0,3.778-10.878" transform="translate(0)" fill="url(#linear-gradient)"/>
        <path id="Fill_8" data-name="Fill 8" d="M98.323,61.111H0V21.389a7.059,7.059,0,0,0,5.484-2.078c.853-1.1,3.778-4.522,4.753-5.744C17.306,5.011,28.884,0,41.316,0,55.453,0,68.371,6.477,74.831,16.989l9.506,15.033c5.119,8.311,10.939,12.467,17.764,18.211a6.1,6.1,0,0,1-3.778,10.878" transform="translate(103.588)" fill="url(#linear-gradient)"/>
      </g>
    </g>
    <path id="Fill_10" data-name="Fill 10" d="M18.5,37A18.51,18.51,0,0,1,5.411,5.411,18.51,18.51,0,0,1,31.589,31.589,18.383,18.383,0,0,1,18.5,37Zm0-24.666A6.1,6.1,0,0,0,12.334,18.5,5.971,5.971,0,0,0,18.5,24.666,5.971,5.971,0,0,0,24.666,18.5,6.1,6.1,0,0,0,18.5,12.334Z" transform="translate(85)" fill="url(#linear-gradient)"/>
    <path id="Fill_11" data-name="Fill 11" d="M20.6,8.147,13.075,31H0L9.005,4.173C11.324-3.421,23.327.215,20.6,8.147" transform="translate(34 68)" fill="url(#linear-gradient)"/>
    <path id="Fill_12" data-name="Fill 12" d="M20.6,8.147,13.028,31H0L8.934,4.173C11.267-3.421,23.341.215,20.6,8.147" transform="translate(59 68)" fill="url(#linear-gradient)"/>
    <path id="Fill_13" data-name="Fill 13" d="M21,31H7.972L.4,8.147C-2.341.215,9.733-3.421,12.066,4.173L21,31" transform="translate(153 68)" fill="url(#linear-gradient)"/>
    <path id="Fill_14" data-name="Fill 14" d="M21,31H7.925L.4,8.147C-2.327.215,9.675-3.421,11.995,4.173L21,31" transform="translate(128 68)" fill="url(#linear-gradient)"/>
    <path id="Fill_15" data-name="Fill 15" d="M18,18.5A18.231,18.231,0,0,1,0,37V24.667A5.865,5.865,0,0,0,6,18.5a6.025,6.025,0,0,0-6-6.167V0A18.23,18.23,0,0,1,18,18.5" transform="translate(104)" fill="url(#linear-gradient)"/>
  </g>
</svg>
