<svg xmlns="http://www.w3.org/2000/svg" width="31.964" height="31.926" viewBox="0 0 31.964 31.926">
  <g id="phone-call" transform="translate(0 -0.074)">
    <path id="Fill_1" data-name="Fill 1" d="M26.019,18.932c-.361-.387-.735-.755-1.1-1.109-.184-.177-.367-.361-.551-.545l-1.6-1.6a3.065,3.065,0,0,0-4.608,0c-.164.164-.335.328-.5.492-.381.374-.775.762-1.155,1.169a12.01,12.01,0,0,1-2.166-1.412A22.607,22.607,0,0,1,11.6,13.314a1.182,1.182,0,0,0-1.779,1.556,24.131,24.131,0,0,0,3.026,2.9c.007,0,.007.007.013.007a12.97,12.97,0,0,0,3.184,1.949.362.362,0,0,0,.079.026,1.565,1.565,0,0,0,1.733-.394l.046-.046c.446-.505.919-.965,1.418-1.457.171-.164.341-.335.512-.505A1.039,1.039,0,0,1,20.472,17a1.024,1.024,0,0,1,.637.354l1.6,1.6c.19.19.388.38.571.564.368.354.709.7,1.037,1.044.006.013.02.02.026.026a.756.756,0,0,1-.013,1.208l-2,2a2.292,2.292,0,0,1-1.5.7,8.022,8.022,0,0,1-3.512-.637,23.3,23.3,0,0,1-6.912-4.155,25.737,25.737,0,0,1-6.7-8.546A12.544,12.544,0,0,1,2.368,6.723a2.506,2.506,0,0,1,.794-2.166A15.4,15.4,0,0,0,4.357,3.408c.236-.249.46-.479.7-.7l.006-.006a.793.793,0,0,1,1.287-.02L9.582,5.923l.02.02A.88.88,0,0,1,9.91,6.5a1,1,0,0,1-.321.617L7.58,9.126A1.183,1.183,0,0,0,9.254,10.8l2.009-2.008A3.2,3.2,0,0,0,12.28,6.481a3.109,3.109,0,0,0-1.024-2.232l-3.23-3.23A3.112,3.112,0,0,0,3.438,1c-.276.256-.525.519-.775.774a13.145,13.145,0,0,1-1.03,1,.291.291,0,0,1-.046.039A4.834,4.834,0,0,0,.012,6.874a14.739,14.739,0,0,0,1.563,5.3v.007a28.139,28.139,0,0,0,7.312,9.334,25.758,25.758,0,0,0,7.6,4.555,11.357,11.357,0,0,0,3.906.8c.2,0,.413-.007.623-.026h.007a4.654,4.654,0,0,0,2.967-1.385L26,23.455l.02-.02a3.1,3.1,0,0,0,0-4.5Z" transform="translate(0 5.125)" fill="#fff"/>
    <path id="Fill_3" data-name="Fill 3" d="M10.934,9.575a11.667,11.667,0,0,0-3.263-6.3A11.575,11.575,0,0,0,1.383.017a1.182,1.182,0,0,0-.4,2.33A9.262,9.262,0,0,1,6,4.954,9.264,9.264,0,0,1,8.61,9.975a1.181,1.181,0,0,0,1.162.985,1,1,0,0,0,.2-.02,1.182,1.182,0,0,0,.965-1.365Z" transform="translate(14.619 6.455)" fill="#fff"/>
    <path id="Fill_4" data-name="Fill 4" d="M17.032,15.666A19,19,0,0,0,11.689,5.361,19,19,0,0,0,1.383.018a1.182,1.182,0,1,0-.4,2.33,16.674,16.674,0,0,1,9.032,4.68A16.632,16.632,0,0,1,14.7,16.06a1.181,1.181,0,0,0,1.162.985,1,1,0,0,0,.2-.02,1.172,1.172,0,0,0,.978-1.359Z" transform="translate(14.914 0.074)" fill="#fff"/>
  </g>
</svg>
