<svg id="speech-bubble-1" xmlns="http://www.w3.org/2000/svg" width="31.951" height="28.298" viewBox="0 0 31.951 28.298">
  <path id="Fill_1" data-name="Fill 1" d="M27.217,4.092A16.989,16.989,0,0,0,15.975,0,16.989,16.989,0,0,0,4.734,4.092,13.3,13.3,0,0,0,0,14.149a13.153,13.153,0,0,0,3.09,8.368,4.676,4.676,0,0,1-1.611,1.82,1.582,1.582,0,0,0,.642,2.894,10,10,0,0,0,6.423-1.178,1.179,1.179,0,1,0-1.211-2.023,6.965,6.965,0,0,1-3.038.93,7.54,7.54,0,0,0,1.277-2.246A1.187,1.187,0,0,0,5.336,21.5a10.713,10.713,0,0,1-2.979-7.353c0-6.5,6.109-11.792,13.618-11.792s13.619,5.29,13.619,11.792S23.485,25.941,15.975,25.941a15.532,15.532,0,0,1-3.221-.334,1.177,1.177,0,1,0-.484,2.3,17.989,17.989,0,0,0,3.712.387,17,17,0,0,0,11.242-4.092,13.319,13.319,0,0,0,4.727-10.057A13.3,13.3,0,0,0,27.217,4.092Z" fill="#fff"/>
  <path id="Fill_2" data-name="Fill 2" d="M3.09,1.545A1.545,1.545,0,1,1,1.545,0,1.545,1.545,0,0,1,3.09,1.545Z" transform="translate(14.424 12.623)" fill="#fff"/>
  <path id="Fill_3" data-name="Fill 3" d="M3.09,1.545A1.545,1.545,0,1,1,1.545,0,1.545,1.545,0,0,1,3.09,1.545Z" transform="translate(19.243 12.623)" fill="#fff"/>
  <path id="Fill_4" data-name="Fill 4" d="M3.09,1.545A1.545,1.545,0,1,1,1.545,0,1.545,1.545,0,0,1,3.09,1.545Z" transform="translate(9.605 12.623)" fill="#fff"/>
</svg>
