<svg xmlns="http://www.w3.org/2000/svg" xmlns:xlink="http://www.w3.org/1999/xlink" width="39" height="37" viewBox="0 0 39 37">
  <defs>
    <linearGradient id="linear-gradient" y1="0.5" x2="1" y2="0.5" gradientUnits="objectBoundingBox">
      <stop offset="0" stop-color="#2d8fff"/>
      <stop offset="1" stop-color="#9bcaff"/>
    </linearGradient>
  </defs>
  <path id="star" d="M.972,16.526l8.415,6.961L6.706,34.018a2.347,2.347,0,0,0,.807,2.575A2.165,2.165,0,0,0,8.791,37a2.686,2.686,0,0,0,1.433-.437l4.207-2.625A1.161,1.161,0,0,0,14.8,32.33a1.181,1.181,0,0,0-1.621-.366L8.987,34.58l2.861-11.233a1.159,1.159,0,0,0-.387-1.181l-8.97-7.42,11.654-.773a1.174,1.174,0,0,0,1.013-.73L19.5,2.489l4.342,10.756a1.174,1.174,0,0,0,1.012.729l11.655.773-8.971,7.42a1.16,1.16,0,0,0-.386,1.181l2.86,11.233-9.886-6.169a1.183,1.183,0,0,0-1.252,0L17.1,29.519a1.161,1.161,0,0,0-.369,1.608,1.182,1.182,0,0,0,1.621.366l1.151-.718,9.269,5.784a2.394,2.394,0,0,0,2.718.034,2.345,2.345,0,0,0,.809-2.568L29.612,23.488l8.41-6.957a2.346,2.346,0,0,0,.873-2.553,2.374,2.374,0,0,0-2.212-1.557L25.749,11.7,21.679,1.613a2.278,2.278,0,0,0-4.355-.007L13.251,11.7l-10.926.725A2.376,2.376,0,0,0,.1,13.978a2.345,2.345,0,0,0,.868,2.549Z" fill="url(#linear-gradient)"/>
</svg>
