<svg xmlns="http://www.w3.org/2000/svg" width="22" height="21.042" viewBox="0 0 22 21.042">
  <path id="star" d="M.548,9.4,5.3,13.358,3.783,19.347a1.341,1.341,0,0,0,.455,1.464,1.215,1.215,0,0,0,.721.231,1.506,1.506,0,0,0,.808-.249L8.141,19.3a.663.663,0,0,0-.706-1.123L5.07,19.666l1.614-6.388a.662.662,0,0,0-.218-.672L1.4,8.386l6.574-.439a.663.663,0,0,0,.572-.415L11,1.415l2.449,6.117a.663.663,0,0,0,.571.415l6.574.439-5.061,4.22a.663.663,0,0,0-.218.672l1.614,6.388-5.577-3.509a.663.663,0,0,0-.706,0l-1,.63a.663.663,0,0,0,.706,1.123L11,17.5l5.228,3.289a1.282,1.282,0,0,0,1.99-1.441L16.7,13.358,21.448,9.4a1.282,1.282,0,0,0-.755-2.337l-6.168-.412L12.229.917a1.282,1.282,0,0,0-2.457,0l-2.3,5.738-6.163.412a1.341,1.341,0,0,0-1.252.885A1.34,1.34,0,0,0,.548,9.4Z" transform="translate(0)" fill="#fff"/>
</svg>
