<svg xmlns="http://www.w3.org/2000/svg" xmlns:xlink="http://www.w3.org/1999/xlink" width="175" height="175" viewBox="0 0 175 175">
  <defs>
    <linearGradient id="linear-gradient" y1="0.5" x2="1" y2="0.5" gradientUnits="objectBoundingBox">
      <stop offset="0" stop-color="#2d8fff"/>
      <stop offset="1" stop-color="#9bcaff"/>
    </linearGradient>
    <clipPath id="clip-path">
      <path id="Clip_3" data-name="Clip 3" d="M83.481,0H0V150.484H166.962V0Z" fill="rgba(0,0,0,0)"/>
    </clipPath>
  </defs>
  <g id="Group_25" data-name="Group 25" transform="translate(80 -254)">
    <path id="Path_2" data-name="Path 2" d="M0,0H175V175H0Z" transform="translate(-80 254)" fill="none"/>
    <g id="smiling-baby" transform="translate(-76.038 265.383)">
      <path id="Fill_1" data-name="Fill 1" d="M13.552,6.777A6.776,6.776,0,1,1,6.775,0,6.776,6.776,0,0,1,13.552,6.777Z" transform="translate(41.631 86.242)" fill="url(#linear-gradient)"/>
      <g id="Group_5" data-name="Group 5" transform="translate(0.038 0.617)">
        <path id="Clip_3-2" data-name="Clip 3" d="M83.481,0H0V150.484H166.962V0Z" fill="rgba(0,0,0,0)"/>
        <g id="Group_5-2" data-name="Group 5" clip-path="url(#clip-path)">
          <path id="Fill_2" data-name="Fill 2" d="M13.26,6.632A6.63,6.63,0,1,1,6.63,0,6.63,6.63,0,0,1,13.26,6.632Z" transform="translate(111.658 85.717)" fill="url(#linear-gradient)"/>
          <path id="Fill_4" data-name="Fill 4" d="M83.5,150.483c-20.749,0-36.09-2.951-46.9-9.02a41.635,41.635,0,0,1-8.111-5.891,36.733,36.733,0,0,1-6.087-7.42,39.158,39.158,0,0,1-4.052-8.925,49.315,49.315,0,0,1-2-10.4,19.554,19.554,0,0,1-.236-38.53v-2.9a67.393,67.393,0,1,1,134.786,0v2.9a19.626,19.626,0,0,1,14.874,12.414,19.572,19.572,0,0,1-15.109,26.116,49.237,49.237,0,0,1-2.005,10.4,39.134,39.134,0,0,1-4.052,8.925,36.674,36.674,0,0,1-6.087,7.42,41.588,41.588,0,0,1-8.111,5.891C119.588,147.533,104.246,150.483,83.5,150.483ZM66.119,9.45A60.91,60.91,0,0,0,23.008,67.394v36c0,15.161,5.55,25.646,16.966,32.054,9.752,5.475,23.989,8.137,43.523,8.137s33.773-2.662,43.524-8.137c11.416-6.408,16.966-16.894,16.966-32.054v-36A60.721,60.721,0,0,0,84.327,6.914a35.08,35.08,0,0,1,8.149,5.776c6.03,5.747,9.63,13.455,9.63,20.619A20.705,20.705,0,0,1,81.424,53.992,17.255,17.255,0,0,1,64.189,36.756a14.5,14.5,0,0,1,14.478-14.48,3.452,3.452,0,1,1,0,6.9,7.584,7.584,0,0,0-7.576,7.576A10.344,10.344,0,0,0,81.424,47.088,13.794,13.794,0,0,0,95.2,33.31c0-5.286-2.776-11.1-7.426-15.559-3.871-3.71-10.771-8.162-21.659-8.3ZM150.89,77.367v24.339a12.649,12.649,0,0,0,0-24.339Zm-134.786,0a12.647,12.647,0,0,0,0,24.337V77.367Z" transform="translate(-0.032 0)" fill="url(#linear-gradient)"/>
        </g>
      </g>
      <path id="Fill_6" data-name="Fill 6" d="M32.792,1.019a18.978,18.978,0,0,1-26.863,0A3.478,3.478,0,0,0,1.017,5.944a25.824,25.824,0,0,0,18.344,7.608A25.825,25.825,0,0,0,37.705,5.944a3.479,3.479,0,0,0-4.914-4.925Z" transform="translate(63.895 101.731)" fill="url(#linear-gradient)"/>
    </g>
  </g>
</svg>
