<svg xmlns="http://www.w3.org/2000/svg" xmlns:xlink="http://www.w3.org/1999/xlink" width="175" height="175" viewBox="0 0 175 175">
  <defs>
    <linearGradient id="linear-gradient" y1="0.5" x2="1" y2="0.5" gradientUnits="objectBoundingBox">
      <stop offset="0" stop-color="#2d8fff"/>
      <stop offset="1" stop-color="#9bcaff"/>
    </linearGradient>
  </defs>
  <g id="Group_27" data-name="Group 27" transform="translate(80 -254)">
    <path id="Path_2" data-name="Path 2" d="M0,0H175V175H0Z" transform="translate(-80 254)" fill="none"/>
    <g id="icon" transform="translate(-77.001 279.583)">
      <path id="Fill_3" data-name="Fill 3" d="M11.933.325A1.441,1.441,0,0,0,9.9.532C9.574.939,1.79,10.825,0,41.247a1.445,1.445,0,0,0,1.357,1.526c.028,0,.056,0,.084,0a1.446,1.446,0,0,0,1.441-1.359C4.6,12.168,12.048,2.473,12.146,2.35A1.442,1.442,0,0,0,11.933.325Z" transform="translate(86.313 33.51)" fill="url(#linear-gradient)"/>
      <path id="Fill_5" data-name="Fill 5" d="M93.9,123.285a1.621,1.621,0,0,1-1.055-.4c-1.846-1.62-5.366-2.708-8.76-2.708s-6.913,1.088-8.76,2.708a1.617,1.617,0,0,1-1.053.394,1.4,1.4,0,0,1-1.134-2.234c.1-.229.589-1.582.873-5.686.171-2.461-.909-7.076-1.952-11.54l-.006-.028c-1.088-4.65-2.115-9.041-2.02-11.888a25.534,25.534,0,0,0-1.767-10.276l-.005-.015c-.108-.313-.217-.635-.324-.956-1-2.987-1.875-7.305.166-14.245.284-.973.579-1.882.794-2.546l.019-.058,0-.013c1.35-4.177,1.8-5.584-.935-9.108-3.764-4.839-8.02-15.543-8.493-16.748a.977.977,0,0,0-.256-.027,9.357,9.357,0,0,0-3.444,1.089c-2.12.967-4.713,2.461-7.22,3.9l-.023.013-.034.019c-1.939,1.116-3.339,1.951-4.092,2.4l0,0a19.365,19.365,0,0,1-4.477,2.235,14.254,14.254,0,0,1-4.555.808,10.7,10.7,0,0,1-5.419-1.448,15.18,15.18,0,0,1-4.6-4.335,33.41,33.41,0,0,1-5.4.443,24.046,24.046,0,0,1-6.751-.875C7.326,40.441,2.088,34.1.48,26.746c-1.4-6.39.283-12.214,4.6-15.978A21.408,21.408,0,0,1,11.735,6.8a22.15,22.15,0,0,1,7.7-1.341,25.649,25.649,0,0,1,2.984.178,35.582,35.582,0,0,1,16.168,6.591c3.768,2.707,6.984,4.509,10.43,4.509,3.428,0,6.623-1.871,9.766-5.72a27.207,27.207,0,0,1,7.261-6.195,33.451,33.451,0,0,1,7.7-3.291A38.058,38.058,0,0,1,83.853,0l.187,0h.084L84.3,0A38.111,38.111,0,0,1,94.4,1.527a33.473,33.473,0,0,1,7.711,3.29,27.194,27.194,0,0,1,7.275,6.2c3.143,3.849,6.338,5.72,9.766,5.72,3.446,0,6.662-1.8,10.432-4.509A35.581,35.581,0,0,1,145.75,5.64a25.633,25.633,0,0,1,2.984-.178,22.151,22.151,0,0,1,7.7,1.341,21.392,21.392,0,0,1,6.65,3.964c4.323,3.763,6,9.587,4.605,15.978-1.607,7.352-6.845,13.7-12.737,15.427a24.067,24.067,0,0,1-6.753.874,33.033,33.033,0,0,1-5.394-.443,15.165,15.165,0,0,1-4.6,4.335,10.705,10.705,0,0,1-5.42,1.448,14.235,14.235,0,0,1-4.554-.808,19.322,19.322,0,0,1-4.472-2.232l-.008,0c-.931-.554-2.205-1.312-4.093-2.4l-.044-.025,0,0c-2.511-1.446-5.108-2.941-7.229-3.909a9.339,9.339,0,0,0-3.446-1.088,1,1,0,0,0-.254.027c-.473,1.2-4.731,11.909-8.493,16.748-2.74,3.523-2.285,4.93-.935,9.107.277.853.548,1.7.819,2.618,2.04,6.94,1.159,11.258.164,14.245-.116.352-.234.7-.323.956l0,.007a25.547,25.547,0,0,0-1.769,10.285c.1,2.837-.929,7.216-2.013,11.852l0,.01-.006.025,0,.015c-1.046,4.469-2.127,9.09-1.956,11.553.283,4.1.776,5.456.873,5.686a1.4,1.4,0,0,1-1.134,2.235Zm-9.813-5.99A19.388,19.388,0,0,1,91.6,118.8c-.131-.947-.239-2.036-.322-3.238a18.28,18.28,0,0,1,.223-3.7H82.549a1.443,1.443,0,1,1,0-2.886h9.458c.364-1.828.818-3.769,1.3-5.824l0-.016.006-.024c.994-4.255,2.023-8.655,1.941-11.109a28.316,28.316,0,0,1,1.923-11.314l0,0c.114-.332.218-.639.318-.939.915-2.746,1.607-6.381-.2-12.517-.265-.9-.534-1.735-.771-2.47l-.023-.072c-1.42-4.39-2.277-7.04,1.4-11.768,3.588-4.615,7.929-15.628,8.112-16.094l.008-.022.008-.021a2.758,2.758,0,0,1,1.708-1.569,3.779,3.779,0,0,1,1.2-.181c2.58,0,6.314,2.043,12.157,5.407,1.767,1.018,3.029,1.767,4.129,2.424l.022.013a16.514,16.514,0,0,0,3.909,1.967,11.23,11.23,0,0,0,3.59.642c4.417,0,6.972-3.282,8.51-5.751,2.234-3.585,1.506-6.263.621-6.9a6.684,6.684,0,0,0-3.912-1.043c-2.219,0-6.006.689-11.451,3.973a9.01,9.01,0,0,1-4.511,1,18.577,18.577,0,0,1-6.555-1.283,20.5,20.5,0,0,1-6.716-4.2,3.293,3.293,0,0,1-.632-3.824,2.9,2.9,0,0,1,2.685-1.469,5.5,5.5,0,0,1,1.324.177,13.735,13.735,0,0,1,2.806,1.169l0,0a10.679,10.679,0,0,0,4.931,1.516,9.624,9.624,0,0,0,4.411-1.21,25.067,25.067,0,0,0,5.376-4.554l.019-.019a42.38,42.38,0,0,1,7.2-6.17,19.032,19.032,0,0,1,10.478-3.138,23.616,23.616,0,0,1,6.144.865c5.813,1.574,5.889,5.49,5.652,7.1-.347,2.348-2,4.916-4.528,7.046a18.576,18.576,0,0,1-9.308,4.192,9.387,9.387,0,0,1-.841,6.964,31.737,31.737,0,0,0,3.772.232,21.13,21.13,0,0,0,5.917-.754c4.848-1.424,9.361-7.006,10.73-13.272.685-3.13,1.118-9.005-3.678-13.183a18.359,18.359,0,0,0-12.407-4.559c-5.653,0-12.037,2.256-17.517,6.19a37.219,37.219,0,0,1-5.15,3.243,15.5,15.5,0,0,1-6.95,1.8,12.51,12.51,0,0,1-5.851-1.479,20.408,20.408,0,0,1-6.166-5.3A26.714,26.714,0,0,0,93.266,4.235a35.641,35.641,0,0,0-9.024-1.346h-.3a35.63,35.63,0,0,0-9.007,1.346,26.733,26.733,0,0,0-13.913,8.611,20.406,20.406,0,0,1-6.166,5.294,12.509,12.509,0,0,1-5.85,1.479,15.489,15.489,0,0,1-6.951-1.8,37.215,37.215,0,0,1-5.15-3.243c-5.478-3.934-11.863-6.19-17.515-6.19A18.364,18.364,0,0,0,6.98,12.946C2.184,17.122,2.617,23,3.3,26.129,4.671,32.4,9.184,37.978,14.032,39.4a21.13,21.13,0,0,0,5.917.754,31.812,31.812,0,0,0,3.772-.232,9.384,9.384,0,0,1-.841-6.964,18.567,18.567,0,0,1-9.309-4.192c-2.531-2.13-4.181-4.7-4.528-7.047-.237-1.611-.161-5.526,5.652-7.1a23.623,23.623,0,0,1,6.143-.864,19.035,19.035,0,0,1,10.477,3.136,42.385,42.385,0,0,1,7.2,6.168l0,0,.007.007a25.086,25.086,0,0,0,5.386,4.566,9.634,9.634,0,0,0,4.412,1.21,10.675,10.675,0,0,0,4.933-1.517,13.825,13.825,0,0,1,2.807-1.169,5.494,5.494,0,0,1,1.324-.177,2.9,2.9,0,0,1,2.684,1.469,3.293,3.293,0,0,1-.632,3.824,20.5,20.5,0,0,1-6.715,4.2,18.579,18.579,0,0,1-6.556,1.283,9.005,9.005,0,0,1-4.512-1c-5.432-3.277-9.219-3.964-11.44-3.964a6.785,6.785,0,0,0-3.919,1.033l0,0c-.88.646-1.6,3.334.622,6.9,1.538,2.469,4.094,5.751,8.511,5.751a11.236,11.236,0,0,0,3.591-.642,16.574,16.574,0,0,0,3.915-1.972l.014-.008c.889-.53,2.229-1.328,4.129-2.424,5.843-3.364,9.576-5.407,12.158-5.407a3.735,3.735,0,0,1,1.2.181,2.754,2.754,0,0,1,1.706,1.569l0,.009.014.034c.01.027,1.144,2.916,2.713,6.343a56.616,56.616,0,0,0,5.4,9.752c3.678,4.729,2.822,7.378,1.4,11.767-.269.829-.533,1.647-.8,2.544-1.8,6.133-1.111,9.769-.2,12.517.107.321.215.64.317.939a28.625,28.625,0,0,1,1.94,10.073h8.2a1.443,1.443,0,1,1,0,2.886H72.988a60.656,60.656,0,0,0,1.25,6.794H84.19a1.444,1.444,0,1,1,0,2.888H74.907l0,.014c1.071,4.583,2.179,9.321,1.979,12.219-.082,1.195-.19,2.284-.32,3.238A19.386,19.386,0,0,1,84.086,117.295Zm26.691-88.447a.186.186,0,0,0-.144.041c-.058.071.034.23.084.292A16.963,16.963,0,0,0,122,33.895a6.269,6.269,0,0,0,3.022-.6c4.844-2.921,9.175-4.4,12.87-4.4a9.909,9.909,0,0,1,5.265,1.334,15.517,15.517,0,0,0,8.692-2.969c2.477-1.769,4.129-3.995,4.418-5.952.276-1.87-.918-3.179-3.549-3.89a20.879,20.879,0,0,0-5.424-.77c-7.166,0-11.644,4.5-15.6,8.463a26.887,26.887,0,0,1-6.122,5.1,12.429,12.429,0,0,1-5.734,1.534,13.382,13.382,0,0,1-6.226-1.829L113.6,29.9a11.569,11.569,0,0,0-2.186-.936A3.017,3.017,0,0,0,110.777,28.847Zm-80.5.041c3.7,0,8.025,1.481,12.871,4.4a6.263,6.263,0,0,0,3.02.6,16.971,16.971,0,0,0,11.3-4.725c.046-.055.133-.214.076-.282a.186.186,0,0,0-.144-.041,3.028,3.028,0,0,0-.633.115,11.621,11.621,0,0,0-2.2.942l-.009.005a13.394,13.394,0,0,1-6.229,1.83,12.44,12.44,0,0,1-5.734-1.533,26.763,26.763,0,0,1-6.1-5.088l-.016-.016c-3.951-3.967-8.429-8.463-15.6-8.463a20.887,20.887,0,0,0-5.424.77c-2.632.711-3.826,2.02-3.55,3.89.29,1.957,1.942,4.182,4.418,5.952a15.52,15.52,0,0,0,8.692,2.97A9.909,9.909,0,0,1,30.274,28.888Z" transform="translate(0.001 0.417)" fill="url(#linear-gradient)"/>
    </g>
  </g>
</svg>
