<svg xmlns="http://www.w3.org/2000/svg" xmlns:xlink="http://www.w3.org/1999/xlink" width="175" height="175" viewBox="0 0 175 175">
  <defs>
    <linearGradient id="linear-gradient" y1="0.5" x2="1" y2="0.5" gradientUnits="objectBoundingBox">
      <stop offset="0" stop-color="#2d8fff"/>
      <stop offset="1" stop-color="#9bcaff"/>
    </linearGradient>
  </defs>
  <g id="Group_28" data-name="Group 28" transform="translate(80 -254)">
    <path id="Path_2" data-name="Path 2" d="M0,0H175V175H0Z" transform="translate(-80 254)" fill="none"/>
    <g id="EYE" transform="translate(-79.473 286)">
      <path id="Fill_1" data-name="Fill 1" d="M86.359,111.8a79.3,79.3,0,0,1-16.943-1.838,81.066,81.066,0,0,1-16.435-5.513,85.085,85.085,0,0,1-15.418-9.186A92.3,92.3,0,0,1,23.671,82.406L0,55.571,23.089,29.4a92.3,92.3,0,0,1,13.9-12.86A85.08,85.08,0,0,1,52.406,7.349,81.081,81.081,0,0,1,68.843,1.837a79.06,79.06,0,0,1,33.89,0,81.061,81.061,0,0,1,16.436,5.512,85.049,85.049,0,0,1,15.418,9.186A92.26,92.26,0,0,1,148.48,29.4L172.147,56.23,149.061,82.406a92.293,92.293,0,0,1-13.893,12.858,85.075,85.075,0,0,1-15.419,9.186,81.083,81.083,0,0,1-16.439,5.513A79.36,79.36,0,0,1,86.359,111.8ZM85.354,7.051c-22.145,0-42.941,9.764-58.557,27.492L7.825,56.072,27.368,78.261c15.614,17.731,36.408,27.5,58.553,27.5s42.94-9.765,58.556-27.5l18.975-21.529L143.91,34.543C128.294,16.814,107.5,7.051,85.354,7.051Z" transform="translate(0.473 0)" fill="url(#linear-gradient)"/>
      <path id="Fill_3" data-name="Fill 3" d="M19.569,0A19.587,19.587,0,0,0,0,19.569a2.8,2.8,0,0,0,5.594,0A13.984,13.984,0,0,1,19.569,5.6a2.8,2.8,0,0,0,0-5.6Z" transform="translate(67.598 35.441)" fill="url(#linear-gradient)"/>
      <path id="Fill_4" data-name="Fill 4" d="M35.315,70.648A35.329,35.329,0,1,1,70.648,35.319,35.362,35.362,0,0,1,35.315,70.648Zm0-65.207A29.883,29.883,0,1,0,65.206,35.319,29.912,29.912,0,0,0,35.315,5.441Z" transform="translate(51.222 20.073)" fill="url(#linear-gradient)"/>
    </g>
  </g>
</svg>
