<svg xmlns="http://www.w3.org/2000/svg" xmlns:xlink="http://www.w3.org/1999/xlink" width="175" height="175" viewBox="0 0 175 175">
  <defs>
    <linearGradient id="linear-gradient" y1="0.5" x2="1" y2="0.5" gradientUnits="objectBoundingBox">
      <stop offset="0" stop-color="#2d8fff"/>
      <stop offset="1" stop-color="#9bcaff"/>
    </linearGradient>
  </defs>
  <g id="Group_29" data-name="Group 29" transform="translate(80 -255)">
    <path id="Path_2" data-name="Path 2" d="M0,0H175V175H0Z" transform="translate(-80 255)" fill="none"/>
    <g id="stomach" transform="translate(-62 258.946)">
      <path id="Fill_1" data-name="Fill 1" d="M11.318,171.055c-.125,0-.257,0-.415-.009A11.179,11.179,0,0,1,0,159.9V135.858c0-14.816,12.423-26.869,27.693-26.869h3.292a2.157,2.157,0,0,0,2.048-1.393A32.34,32.34,0,0,1,56.155,87.2c11.54-2.75,18.955-13.789,16.88-25.133H67.867c-15.27,0-27.694-12.054-27.694-26.869V10.978a10.733,10.733,0,0,1,3.457-7.9A11.443,11.443,0,0,1,51.483,0c.136,0,.275,0,.411.007A11.184,11.184,0,0,1,62.8,11.159V35.2a5,5,0,0,0,5.068,4.917h6.765a32.165,32.165,0,0,1,8.914-11.428A33.286,33.286,0,0,1,96.735,22.2a34,34,0,0,1,7.873-.93,33.409,33.409,0,0,1,16.913,4.612,31.667,31.667,0,0,1,14.846,19.61,82.809,82.809,0,0,1-10.2,64.711,87.437,87.437,0,0,1-54.387,38.742,33.807,33.807,0,0,1-7.837.925,33.052,33.052,0,0,1-29.37-17.749,2.172,2.172,0,0,0-1.955-1.18H27.693a5,5,0,0,0-5.068,4.918v24.219a10.732,10.732,0,0,1-3.456,7.9A11.441,11.441,0,0,1,11.318,171.055ZM27.695,115.8c-11.4,0-20.67,9-20.67,20.054V159.9a4.347,4.347,0,0,0,4.129,4.339l.161,0a4.338,4.338,0,0,0,2.977-1.166,4.064,4.064,0,0,0,1.309-2.995V135.858a11.931,11.931,0,0,1,12.094-11.732H32.62a9.172,9.172,0,0,1,8.258,4.989,25.956,25.956,0,0,0,23.066,13.938,26.708,26.708,0,0,0,6.162-.726,80.475,80.475,0,0,0,50.054-35.655,76.224,76.224,0,0,0,9.385-59.557,24.885,24.885,0,0,0-11.663-15.406,26.255,26.255,0,0,0-13.288-3.622,26.728,26.728,0,0,0-6.185.73,25.6,25.6,0,0,0-17.78,15.031,5.024,5.024,0,0,1-4.7,3.082H67.868A11.93,11.93,0,0,1,55.777,35.2V11.159a4.347,4.347,0,0,0-4.13-4.339l-.157,0a4.336,4.336,0,0,0-2.98,1.166A4.067,4.067,0,0,0,47.2,10.978V35.2c0,11.058,9.273,20.054,20.67,20.054h6.755a5.027,5.027,0,0,1,4.919,3.743l.013.053a27.637,27.637,0,0,1,.479,11.39A28.185,28.185,0,0,1,76.1,80.783a29.063,29.063,0,0,1-7.637,8.17,29.8,29.8,0,0,1-10.639,4.865,25.411,25.411,0,0,0-18.165,16.029,9.185,9.185,0,0,1-8.679,5.957Z" transform="translate(0 0)" fill="url(#linear-gradient)"/>
      <path id="Fill_3" data-name="Fill 3" d="M36.364.512a3.575,3.575,0,0,0-4.893,1.2A68.86,68.86,0,0,1,2.034,28.251a3.541,3.541,0,0,0,1.531,6.744,3.573,3.573,0,0,0,1.526-.344A75.948,75.948,0,0,0,37.567,5.379,3.533,3.533,0,0,0,36.364.512Z" transform="translate(78.222 98.321)" fill="url(#linear-gradient)"/>
      <path id="Fill_4" data-name="Fill 4" d="M9.133,2.668A3.22,3.22,0,0,0,5.1.147C4.236.431,3.356.7,2.481.942A3.754,3.754,0,0,0,.094,5.415,3.367,3.367,0,0,0,3.255,8.234a2.907,2.907,0,0,0,.78-.108c.962-.267,1.93-.562,2.878-.875A3.792,3.792,0,0,0,9.133,2.668Z" transform="translate(64.842 129.857)" fill="url(#linear-gradient)"/>
    </g>
  </g>
</svg>
