<svg xmlns="http://www.w3.org/2000/svg" xmlns:xlink="http://www.w3.org/1999/xlink" width="175" height="175" viewBox="0 0 175 175">
  <defs>
    <clipPath id="clip-path">
      <path id="Clip_2" data-name="Clip 2" d="M0,169.567H169.547V0H0Z" fill="rgba(0,0,0,0)"/>
    </clipPath>
    <linearGradient id="linear-gradient" y1="0.5" x2="1" y2="0.5" gradientUnits="objectBoundingBox">
      <stop offset="0" stop-color="#2d8fff"/>
      <stop offset="1" stop-color="#9bcaff"/>
    </linearGradient>
  </defs>
  <g id="Group_30" data-name="Group 30" transform="translate(80 -254)">
    <path id="Path_2" data-name="Path 2" d="M0,0H175V175H0Z" transform="translate(-80 254)" fill="none"/>
    <g id="brain" transform="translate(-77.021 256)">
      <path id="Clip_2-2" data-name="Clip 2" d="M0,169.567H169.547V0H0Z" transform="translate(0.021)" fill="rgba(0,0,0,0)"/>
      <g id="brain-2" data-name="brain" transform="translate(0.021)" clip-path="url(#clip-path)">
        <path id="Fill_1" data-name="Fill 1" d="M100.273,170a20.887,20.887,0,0,1-15.458-6.936A19.911,19.911,0,0,1,49.8,150.078,29.929,29.929,0,0,1,20.319,125.05,39.926,39.926,0,0,1,3.159,74.7a39.461,39.461,0,0,1,8.977-13.03A29.892,29.892,0,0,1,39.843,20.586c.182,0,.341,0,.486,0A25.906,25.906,0,0,1,47.059,7.706a24.151,24.151,0,0,1,35.374,0,26.554,26.554,0,0,1,2.358,2.838,26.691,26.691,0,0,1,2.522-2.919A25.657,25.657,0,0,1,105.253,0a24.345,24.345,0,0,1,17.515,7.52,25.979,25.979,0,0,1,6.89,13.07c.149,0,.311,0,.5,0a29.892,29.892,0,0,1,27.707,41.088,39.859,39.859,0,0,1,5.779,50.237,39.925,39.925,0,0,1-13.961,13.14A29.877,29.877,0,0,1,120.2,150.078,19.919,19.919,0,0,1,100.273,170ZM89.648,75.055v75.023c0,5.306,4.965,9.961,10.625,9.961a9.965,9.965,0,0,0,9.811-11.714,29.8,29.8,0,0,1-7.806-4.213,4.98,4.98,0,1,1,5.977-7.968,19.745,19.745,0,0,0,11.941,3.974,19.926,19.926,0,0,0,9.4-37.494,4.98,4.98,0,1,1,4.707-8.778,29.909,29.909,0,0,1,14.966,19.428,30.34,30.34,0,0,0,7.9-10.229,29.968,29.968,0,0,0,2.132-6.159,29.82,29.82,0,0,0-10.656-30.053,5.007,5.007,0,0,1-1.227-6.405,19.928,19.928,0,0,0-17.259-29.88,20.124,20.124,0,0,0-4,.4,5.071,5.071,0,0,1-1,.1,5,5,0,0,1-3.559-1.51,4.933,4.933,0,0,1-1.41-3.6,15.974,15.974,0,0,0-4.554-11.472,14.458,14.458,0,0,0-10.381-4.509A16.014,16.014,0,0,0,89.648,25.567V55.449c0,8.1,7.146,14.941,15.605,14.941a4.981,4.981,0,1,1,0,9.961A25.541,25.541,0,0,1,89.648,75.055Zm-24.9,60.081a4.981,4.981,0,0,1,2.995,8.962,29.8,29.8,0,0,1-7.825,4.227,9.963,9.963,0,1,0,19.772,1.753V75.358a24.668,24.668,0,0,1-14.942,4.994,4.981,4.981,0,0,1,0-9.961A14.958,14.958,0,0,0,79.688,55.449V25.567c0-8.459-6.843-15.606-14.942-15.606S49.8,17.107,49.8,25.567a5.155,5.155,0,0,1-5.069,5.46,5.027,5.027,0,0,1-.979-.1,19.932,19.932,0,0,0-21.173,29.5,5.006,5.006,0,0,1-1.227,6.405A29.823,29.823,0,0,0,10.7,96.884a30.04,30.04,0,0,0,2.131,6.157,30.355,30.355,0,0,0,7.9,10.228,29.755,29.755,0,0,1,15.706-19.8,4.976,4.976,0,0,1,6.684,2.221,4.987,4.987,0,0,1-2.222,6.684,19.925,19.925,0,1,0,20.863,33.764A4.939,4.939,0,0,1,64.746,135.136Z" transform="translate(-0.021)" fill="url(#linear-gradient)"/>
      </g>
    </g>
  </g>
</svg>
