<?xml version="1.0" encoding="utf-8"?>
<!-- Generator: Adobe Illustrator 19.0.1, SVG Export Plug-In . SVG Version: 6.00 Build 0)  -->
<svg version="1.1" id="Layer_1" 
	xmlns="http://www.w3.org/2000/svg" 
	xmlns:xlink="http://www.w3.org/1999/xlink" x="0px" y="0px" viewBox="-793 545.5 96 100" style="enable-background:new -793 545.5 96 100;" xml:space="preserve">
	<style type="text/css">
	.st0{fill:#add575;}
	.st1{fill:#00acba;}
	.st2{fill:#F59331;}
	</style>
	<g>
		<path class="st1" d="M-711.1,556.6h-63.8c-3.5,0-6.3,2.9-6.3,6.6v75.5c0,3.6,2.8,6.6,6.3,6.6h63.8c3.5,0,6.3-2.9,6.3-6.6v-75.5
		C-704.8,559.6-707.6,556.6-711.1,556.6z M-710.3,635.6c0,0,0.2,1.5-0.5,2.3c-0.7,0.8-2.1,0.7-2.1,0.7l-60.7,0c0,0-0.9,0-1.5-0.8
		c-0.6-0.6-0.6-2-0.6-2l0-70.4c0,0,0-1,0.6-1.6c0.7-0.6,1.6-0.7,1.6-0.7h60.7c0,0,1.2,0,1.7,0.5c0.7,0.7,0.7,1.5,0.7,1.5
		L-710.3,635.6L-710.3,635.z"/>
		<g>
			<path class="st2" d="M-737.3,547.8c0,1.4-1.3,2.5-2.8,2.5h-5.6c-1.5,0-2.8-1.1-2.8-2.5l0,0c0-1.4,1.3-2.5,2.8-2.5h5.6
			C-738.5,545.3-737.3,546.5-737.3,547.8L-737.3,547.8z"/>
			<path class="st2" d="M-730.9,553.3c0-1.5-0.1-3.9-1.3-3.9h-21.5c-1.1,0-1.4,2.4-1.4,3.9L-730.9,553.3z"/>
			<path class="st2" d="M-725.7,558.3c0-2.1-0.2-5.6-1.9-5.6h-30.8c-1.6,0-2,3.5-1.9,5.5L-725.7,558.3z"/>
		</g>
		<rect x="-755.8" y="577.6" class="st0" width="35.4" height="3.2"/>
		<path class="st2" d="M-767,588.8v7.9h7.9v-7.9H-767z M-765.8,595.5V590h5.5v5.5H-765.8z"/>
		<rect x="-755.8" y="592.6" class="st0" width="35.4" height="3.2"/>
		<rect x="-755.8" y="606.9" class="st0" width="35.4" height="3.2"/>
		<rect x="-755.8" y="620.9" class="st0" width="35.4" height="3.1"/>
		<path class="st2" d="M-767,573.9v7.9h7.9v-7.9C-759.1,573.9-767,573.9-767,573.9z M-765.8,580.6V575h5.5v5.5H-765.8z"/>
		<path class="st2" d="M-767,603.2v7.9h7.9v-7.9H-767z M-765.8,609.9v-5.5h5.5v5.5H-765.8z"/>
		<path class="st2" d="M-767,617.2v7.9h7.9v-7.9H-767z M-765.8,623.9v-5.5h5.5v5.5H-765.8z"/>
	</g>
</svg>
