<?xml version="1.0" encoding="utf-8"?>
<!-- Generator: Adobe Illustrator 19.0.0, SVG Export Plug-In . SVG Version: 6.00 Build 0)  -->
<svg version="1.1" id="Capa_1" xmlns="http://www.w3.org/2000/svg" xmlns:xlink="http://www.w3.org/1999/xlink" x="0px" y="0px"
	 viewBox="0 0 150 150" style="enable-background:new 0 0 150 150;" xml:space="preserve">
<style type="text/css">
	.st0{fill:#00acba;}
	.st1{fill:#add575;}
	.st2{fill:#F59331;}
</style>
<g id="XMLID_434_">
	<g id="XMLID_528_">
		<g id="XMLID_551_">
			<g id="XMLID_552_">
				<path id="XMLID_588_" class="st2" d="M103.3,84.7v37.6c0,1.6-1.3,3-3,3s-3-1.3-3-3V84.7h-1.7v37.6c0,2.6,2.1,4.7,4.7,4.7
					s4.7-2.1,4.7-4.7V84.7H103.3z"/>
			</g>
		</g>
		<g id="XMLID_549_">
			<g id="XMLID_550_">
				<path id="XMLID_585_" class="st2" d="M108.8,55.4v15.8c0,4.9-4,9-9,9h0c-4.9,0-9-4-9-9V55.4h-1.7v15.8c0,5.9,4.8,10.7,10.7,10.7
					c5.9,0,10.7-4.8,10.7-10.7V55.4H108.8z"/>
			</g>
		</g>
		<g id="XMLID_547_">
			<g id="XMLID_548_">
				<path id="XMLID_582_" class="st2" d="M95.6,71.7c-0.5,0-0.9-0.4-0.9-0.9V55.9c0-0.5,0.4-0.9,0.9-0.9c0.5,0,0.9,0.4,0.9,0.9v14.9
					C96.5,71.4,96.1,71.7,95.6,71.7z"/>
			</g>
		</g>
		<g id="XMLID_545_">
			<g id="XMLID_546_">
				<path id="XMLID_579_" class="st2" d="M99.9,71.7c-0.5,0-0.9-0.4-0.9-0.9V55.9c0-0.5,0.4-0.9,0.9-0.9c0.5,0,0.9,0.4,0.9,0.9v14.9
					C100.7,71.4,100.4,71.7,99.9,71.7z"/>
			</g>
		</g>
		<g id="XMLID_529_">
			<g id="XMLID_530_">
				<path id="XMLID_576_" class="st2" d="M104.2,71.7c-0.5,0-0.9-0.4-0.9-0.9V55.9c0-0.5,0.4-0.9,0.9-0.9c0.5,0,0.9,0.4,0.9,0.9
					v14.9C105,71.4,104.6,71.7,104.2,71.7z"/>
			</g>
		</g>
	</g>
	<g id="XMLID_475_">
		<g id="XMLID_527_">
			<path id="XMLID_556_" class="st1" d="M67.6,126c-4.5,0-8.9-1.4-12.7-4.2l0,0c-6.7-5-13.1-13.9-5.2-27.9l0.1-0.1
				c4.5-6.5,6.3-12.7,6-20.1c-0.3-5.6,5.2-9.2,10.8-9.9c5.3-0.6,11.2,1.4,12.4,7.5c0.2,1,0.2,2.1,0,3.3c-0.4,2.4-0.5,9.1,6.2,18.8
				c1.6,2.3,2.7,4.9,3.2,7.7c1.7,8.5-1.9,16.7-9.3,21.4C75.5,124.9,71.6,126,67.6,126z M56.3,119.9c7.7,5.7,16.2,4.2,21.5,0.8
				c6.6-4.1,9.7-11.4,8.3-19c-0.5-2.5-1.5-4.8-2.9-6.9c-7.1-10.4-7-17.8-6.6-20.5c0.1-1,0.1-1.8,0-2.5c-1-4.9-5.9-6.2-9.8-5.7
				c-4.4,0.5-9,3.3-8.8,7.5c0.4,7.8-1.6,14.7-6.3,21.5C46.1,105,47.6,113.4,56.3,119.9L56.3,119.9z"/>
		</g>
		<g id="XMLID_476_">
			<path id="XMLID_554_" class="st1" d="M66.7,66c-0.6,0-1.1-0.4-1.2-1c0-0.1-1.6-12-10-12.6c-0.6,0-1.1-0.6-1.1-1.2
				c0-0.6,0.6-1.1,1.2-1.1c4.3,0.3,7.8,3,10,7.7c1.7,3.4,2.1,6.8,2.1,6.9c0.1,0.6-0.4,1.2-1,1.3C66.8,66,66.7,66,66.7,66z"/>
		</g>
	</g>
	<g id="XMLID_455_">
		<path id="XMLID_563_" class="st0" d="M31.2,76.4c-5.7-8.9-10-19.9-6.7-30.3c3.6-11.2,12.9-19,23.8-19.9
			c10.3-0.8,19.6,4.9,25.1,15.4c0,0.4,0.3,0.8,0.7,0.9c0.2,0.1,0.4,0.1,0.6,0.1c0.2,0,0.4,0,0.6-0.1c0.4-0.2,0.6-0.6,0.7-0.9
			c5.4-10.4,14.8-16.2,25.1-15.4c10.9,0.9,20.2,8.7,23.8,19.9c3.3,10.4-1,21.4-6.7,30.3c0.4,0.9,0.7,1.9,1.1,2.8
			c8.3-12.4,11-24.1,7.9-33.9c-3.9-12.1-14-20.6-25.9-21.6c-10.7-0.9-20.5,4.7-26.5,15c-6-10.3-15.8-15.9-26.5-15
			c-11.9,1-22.1,9.4-25.9,21.6c-3.1,9.8-0.4,21.5,7.9,33.9C30.5,78.3,30.8,77.3,31.2,76.4z"/>
	</g>
</g>
</svg>
