<?xml version="1.0" encoding="utf-8"?>
<!-- Generator: Adobe Illustrator 19.0.0, SVG Export Plug-In . SVG Version: 6.00 Build 0)  -->
<svg version="1.1" id="Capa_1" xmlns="http://www.w3.org/2000/svg" xmlns:xlink="http://www.w3.org/1999/xlink" x="0px" y="0px"
	 viewBox="0 0 150 150" style="enable-background:new 0 0 150 150;" xml:space="preserve">
<style type="text/css">
	.st0{fill:#00acba;}
	.st1{fill:#F59331;}
</style>
<g id="XMLID_49_">
	<path id="XMLID_109_" class="st0" d="M124.8,91.9c0-0.3,0.1-0.5,0.1-0.7c0.4-1.8-1.1-6.2-5.2-17.3c-3.2-8.7-7.2-19.5-8.5-26.2
		C108.6,34,96,25.8,88.4,25.4C80.6,25,78.6,33.2,78,35.9c0,0.2-0.1,0.4-0.1,0.5c-0.2,0.8-0.3,2.2,1.5,2.9c0,0,0.1,0,0.1,0
		c0,0.3,0.1,1.1-0.6,3.1c-0.6,2.1,0.1,3.4,0.7,4.2c3,3.3,12.1,2.2,15,1.7c6,3.7,3.9,14.1,3.5,15.6c-1.1,2-1.6,4.6-1.7,7.2l3.2,4.1
		c-0.2-3.5,0-7.3,1.4-9.9l0.1-0.2l0.1-0.2c0.2-0.6,3.7-14.8-5.5-19.7L95.2,45l-0.5,0.1c-4.2,0.7-11.2,1.1-12.6-0.6
		c-0.1-0.1-0.3-0.4-0.1-1.2c1.2-3.7,0.9-5.8-0.8-6.8c0.9-3.8,2.5-8.2,7.1-8c5.8,0.3,17.5,7.2,19.9,19.8c1.3,6.9,5.2,17.5,8.6,26.7
		c2.4,6.6,5.2,14.1,5.1,15.5c0,0.2-0.1,0.5-0.1,0.7c-0.5,2.6-1.6,8.5-6.4,11.6c-3.7,2.3-8.8,2.6-15.4,0.7l-0.5-0.1l-0.5,0.2
		C98,104,77,111.2,63,94.4l-1.8-2.2l-0.9,2.7c-1.7,4.8-7.5,17.5-13.7,18l-8.9,2.7c-3-4.4-15.1-24.8-6.1-53.5
		c2.3,1.9,6.6,4.9,10.7,6.1l-2.1-4.3c-4.3-2.2-8.3-5.8-8.3-5.8l-1.8-1.7l-0.8,2.3C17,93.9,35,117.4,35.7,118.4l0.7,0.9L47,116
		c4.1-0.4,8-4,11.9-10.5c1.5-2.6,2.7-5.2,3.5-7.1c14.1,14.7,33.8,9.5,37.2,8.5c0,0,0.1,0,0.1,0c7.2,1.9,13,1.4,17.3-1.3
		C123,101.8,124.3,94.6,124.8,91.9z"/>
	<path id="XMLID_115_" class="st1" d="M50.3,73.1c1.5,0.1,3-0.4,4.6-0.9c4.3-1.4,9.2-2.9,16.8,5.5l0.6,0.6l0.8-0.3
		c3.1-1.2,8.5-1.4,13.1,0.7c3.1,1.4,5.2,3.7,6.3,6.7l2.5-0.8c0-0.1-0.7-3-1-6.3l-2.6-3.3c-0.1,1.4,0,2.8,0.1,4.2
		c-1.2-1.1-2.6-2.1-4.2-2.9c-4.8-2.2-10.6-2.1-14.2-1c-8.5-8.9-14.5-7-19-5.6c-1.4,0.5-2.7,0.8-3.8,0.8c-1.3,0-2.8-0.6-4.2-1.3
		l1.7,3.4C48.7,72.9,49.5,73.1,50.3,73.1z"/>
</g>
</svg>
