<?xml version="1.0" encoding="utf-8"?>
<!-- Generator: Adobe Illustrator 19.0.0, SVG Export Plug-In . SVG Version: 6.00 Build 0)  -->
<svg version="1.1" id="Capa_1" xmlns="http://www.w3.org/2000/svg" xmlns:xlink="http://www.w3.org/1999/xlink" x="0px" y="0px"
	 viewBox="0 0 150 150" style="enable-background:new 0 0 150 150;" xml:space="preserve">
<style type="text/css">
	.st0{fill:none;}
	.st1{fill:#00acba;}
	.st2{fill:none;stroke:#add575;stroke-width:3;stroke-miterlimit:10;}
	.st3{fill:#add575;}
	.st4{fill:#F59331;}
</style>
<g id="XMLID_103_">
	<g id="XMLID_53_">
		<g id="XMLID_54_">
			<path id="XMLID_108_" class="st0" d="M106.8,43.6H44.9c-0.9,0-1.6,0.7-1.6,1.6V67h4.9l31.5,18h28.5V45.1
				C108.3,44.3,107.6,43.6,106.8,43.6z M86.7,67H64.1l-7-13.3l1.2-0.8c0.7-0.4,17.7-10.8,33,0.1l1,0.7L86.7,67z"/>
			<path id="XMLID_124_" class="st0" d="M61.3,54.9l4.7,9h7.3c0-0.8,0.4-1.6,1-2.1l-2.7-9.1l4,8.5c0.2,0,0.3,0,0.5,0
				c1.5,0,2.7,1.2,2.7,2.7h5.8l4-9C77.4,47.9,65.2,53,61.3,54.9z"/>
			<path id="XMLID_128_" class="st1" d="M43.4,45.1c0-0.9,0.7-1.6,1.6-1.6h61.8c0.9,0,1.6,0.7,1.6,1.6V85h3.1V45.1
				c0-2.6-2.1-4.7-4.7-4.7H44.9c-2.6,0-4.7,2.1-4.7,4.7V67h3.1V45.1z"/>
			<path id="XMLID_129_" class="st1" d="M108.3,106.9c0,0.9-0.7,1.6-1.6,1.6H44.9c-0.9,0-1.6-0.7-1.6-1.6V90.6l-3.1-0.9v17.3
				c0,2.6,2.1,4.7,4.7,4.7h61.8c2.6,0,4.7-2.1,4.7-4.7v-3.6l-3.1-0.1V106.9z"/>
			<path id="XMLID_138_" class="st4" d="M58.4,53l-1.2,0.8l7,13.3h22.5l5.8-13.3l-1-0.7C76.1,42.2,59.1,52.5,58.4,53z M84.6,63.9
				h-5.8c0-1.5-1.2-2.7-2.7-2.7c-0.2,0-0.3,0-0.5,0l-4-8.5l2.7,9.1c-0.6,0.5-1,1.2-1,2.1H66l-4.7-9c3.9-2,16.1-7.1,27.2-0.1
				L84.6,63.9z"/>
		</g>
		<path id="XMLID_101_" class="st2" d="M22.3,58.6c0,0,17,39.2,99.5,35"/>
	</g>
	<circle id="XMLID_100_" class="st3" cx="121.8" cy="93.9" r="4.2"/>
</g>
</svg>
